<?xml version="1.0" encoding="UTF-8" standalone="no"?>
<!DOCTYPE svg PUBLIC "-//W3C//DTD SVG 1.1//EN" "http://www.w3.org/Graphics/SVG/1.1/DTD/svg11.dtd">
<svg width="100%" height="100%" viewBox="0 0 1085 1241" version="1.1" xmlns="http://www.w3.org/2000/svg" xmlns:xlink="http://www.w3.org/1999/xlink" xml:space="preserve" xmlns:serif="http://www.serif.com/" style="fill-rule:evenodd;clip-rule:evenodd;stroke-linejoin:round;stroke-miterlimit:2;">
    <g id="_-000000ff" serif:id="#000000ff">
        <g transform="matrix(1,0,0,1,35.854505,-7.205947)">
            <g transform="matrix(0.950749,0,0,0.950749,24.952881,30.915249)">
                <path d="M5.733,657.252C5.563,656.874 5.4,656.492 5.246,656.105C1.394,646.46 3.208,635.474 9.957,627.58C14.228,622.583 20.277,619.669 24.867,615.06C29.226,609.168 32.702,602.689 36.041,596.19C36.183,595.912 36.33,595.637 36.482,595.365C47.543,575.499 61.344,557.077 77.584,541.154C77.805,540.938 78.028,540.726 78.256,540.517C82.34,536.77 86.586,533.151 91.007,529.763C90.112,524.58 89.784,519.318 90.396,514.004C90.601,512.226 90.976,510.472 91.516,508.765C93.701,501.863 97.363,495.503 102.06,490.011C96.926,482.837 95.434,473.563 98.239,465.026C101.215,455.97 103.963,446.795 107.793,438.052C109.14,434.316 109.572,430.334 110.507,426.483C112.352,416.823 111.288,406.842 112.999,397.157C113.106,396.55 113.234,395.946 113.381,395.347C113.517,394.795 113.715,394.019 113.906,393.275C111.873,385.147 111.449,376.546 113.96,368.32C114.017,368.135 114.075,367.95 114.136,367.766C117.49,357.545 123.094,348.282 129.489,339.705C137.49,326.496 139.877,310.853 144.17,296.202C144.232,295.989 144.297,295.777 144.364,295.567C147.785,284.842 150.656,273.722 156.51,264.72C159.679,259.572 164.759,255.955 167.84,250.757L168.003,250.486C168.421,249.139 169.992,244.155 171.444,240.554C177.707,222.965 183.255,204.062 196.686,190.426C201.616,185.239 207.664,181.925 214.12,179.753C217.939,175.012 222.085,170.534 226.025,166.607C227.31,165.276 228.984,164.233 229.813,162.552L229.935,162.309C236.694,148.928 245.377,136.423 256.067,125.871L255.517,126.447C259.25,122.744 266.251,119.122 269.985,117.337C271.499,116.033 272.79,114.483 274.096,112.995C281.542,104.265 290.905,97.326 300.602,92.035C304.861,89.638 309.636,88.557 314.089,86.59C320.885,83.219 326.841,78.405 333.526,74.86C333.98,74.619 334.44,74.391 334.906,74.176C341.863,70.965 348.452,67.086 355.035,63.19C355.694,62.8 356.368,62.437 357.057,62.102C361.526,59.931 365.912,57.586 370.273,55.189C368.222,52.573 366.634,49.585 365.614,46.347C363.246,38.829 364.162,30.661 368.137,23.855C373.149,15.273 380.888,7.998 391.216,5.454C391.405,5.407 391.596,5.362 391.786,5.319C404.282,2.518 417.143,1.376 429.911,1.977C447.377,2.362 464.852,4.978 481.51,10.297C482.4,10.581 483.276,10.91 484.133,11.282C494.832,15.923 505.616,20.503 515.457,25.964C518.784,23.511 522.363,21.417 525.941,19.348C527.417,18.045 531.541,14.47 534.355,12.661L534.125,12.806C543.393,6.835 554.087,3.572 564.764,1.349C565.773,1.139 566.792,0.985 567.817,0.888C580.223,-0.291 592.635,-2.313 605.129,-1.555C623.912,-1.261 642.474,1.806 661.104,3.823C675.657,5.391 690.09,8.101 704.246,11.801L704.452,11.855C727.702,18.121 751.227,23.81 773.628,32.789C774.242,33.035 774.848,33.303 775.443,33.592C782.695,37.115 790.358,39.697 797.533,43.427C811.3,50.418 826.037,56.75 836.5,68.526C838.723,70.969 841.844,75 843.073,76.607C858.162,85.303 872.551,95.198 886.149,106.038C891.333,110.03 896.072,114.561 900.285,119.564C905.231,124.339 911.162,127.969 916.824,131.839C917.178,132.082 917.526,132.332 917.869,132.59C924.622,137.678 930.718,143.549 936.608,149.554C945.316,158.26 951.559,169.133 956.082,180.485C956.498,181.529 956.851,182.598 957.139,183.685C958.286,188.024 957.7,192.883 959.909,196.95C963.78,203.732 968.903,209.687 973.887,215.679C974.267,216.136 974.632,216.605 974.982,217.085C981.563,226.111 984.355,237.389 991.342,246.173L991.368,246.205C996.646,252.861 1002.054,259.486 1006.135,266.997C1010.145,274.337 1013.79,281.9 1017.086,289.586C1017.389,290.293 1017.663,291.012 1017.906,291.741C1019.218,295.665 1021.074,303.323 1021.588,305.475C1022.562,306.674 1023.425,307.939 1024.175,309.257C1026.247,311.963 1027.834,315.063 1028.814,318.431C1030.242,323.338 1030.277,328.457 1029.033,333.256C1029.167,334.05 1029.289,334.829 1029.37,335.479L1029.345,335.261C1030.779,346.556 1031.17,358.101 1029.849,369.421C1029.625,371.34 1029.202,373.23 1028.588,375.062C1025.872,383.165 1023.659,391.658 1018.512,398.681C1016.693,401.162 1014.505,403.291 1012.052,405.017C1011.544,407.201 1010.915,409.349 1010.072,411.429C1008.057,416.639 1005.71,421.709 1003.26,426.729C1003.584,428.832 1003.974,430.922 1004.541,432.977L1004.58,433.122C1006.975,441.987 1007.427,451.188 1008.302,460.27C1009.936,470.217 1009.462,480.454 1011.951,490.286C1015.384,501.449 1016.915,513.065 1019.156,524.508C1019.265,525.061 1019.356,525.618 1019.431,526.176C1021.363,540.629 1025.065,554.772 1027.088,569.215C1027.192,569.96 1027.266,570.708 1027.31,571.458C1028.909,598.807 1023.458,625.812 1020.273,652.857C1019.567,660.363 1019.042,667.889 1018.415,675.331C1018.066,679.613 1016.709,683.754 1016.534,688.054C1016.527,688.241 1016.517,688.429 1016.506,688.617C1015.755,700.954 1015.745,713.321 1014.985,725.668C1014.975,725.825 1014.964,725.983 1014.951,726.14C1013.771,741.16 1010.618,755.921 1006.588,770.43C1006.519,770.676 1006.448,770.922 1006.373,771.166C1002.446,783.933 999.646,797.079 994.475,809.449C994.261,809.96 994.033,810.465 993.789,810.963C990.63,817.413 988.292,824.209 985.444,830.781C985.114,831.541 984.752,832.286 984.356,833.014C979.53,841.895 974.554,850.696 969.718,859.567C969.504,859.959 969.281,860.346 969.049,860.728C965.943,865.826 963.05,871.098 961.116,876.756C960.981,877.152 960.837,877.544 960.685,877.932C958.923,882.421 956.777,886.737 954.613,891.046C955.963,893.117 957.043,895.196 957.622,897.148C957.713,897.454 957.799,897.762 957.879,898.071C961.004,910.096 957.323,918.42 952.341,924.629C947.046,931.227 935.697,936.1 926.66,936.31C926.237,936.32 925.814,936.32 925.391,936.311C924.79,936.297 924.194,936.265 923.605,936.215C920.903,938.905 918.094,941.485 915.149,943.914C914.824,944.183 914.492,944.445 914.154,944.699C907.578,949.643 900.541,953.974 893.378,958.013C893.009,958.221 892.636,958.421 892.258,958.612C885.289,962.135 877.638,964.716 871.739,969.981L871.472,970.216C864.222,976.522 856.42,982.178 848.312,987.334C842.089,991.561 835.803,995.748 829.082,999.135C821.959,1002.859 814.194,1005.175 807.157,1009.075L807.012,1009.155C794.876,1015.786 780.871,1019.86 766.962,1018.307C762.954,1017.895 758.973,1017.276 754.998,1016.625C750.728,1018.375 746.114,1019.347 741.193,1019.167C730.036,1019.164 718.663,1019.056 707.855,1015.988C697.954,1013.568 687.728,1012.572 677.565,1012.762C675.532,1012.802 673.496,1012.788 671.462,1012.776C669.503,1014.21 667.341,1015.399 665.015,1016.296C657.292,1019.274 642.149,1016.077 642.149,1016.077C642.149,1016.077 643.974,1016.632 644.865,1016.815C639.538,1015.721 634.705,1013.11 630.903,1009.375C628.139,1009.493 625.336,1009.861 622.625,1009.825L622.493,1009.823C613.809,1009.665 605.069,1009.791 596.471,1008.472C583.245,1007.382 569.984,1006.677 556.79,1005.218L556.53,1005.188C551.165,1004.545 545.731,1005.032 540.305,1004.307C528.855,1002.81 517.24,1002.521 505.959,999.965C489.635,996.955 474.463,989.907 458.557,985.442C454.768,984.634 451.022,983.422 447.136,983.568L447.81,983.523C442.551,983.735 434.478,981.952 431.327,981.197C415.711,980.505 400.036,979.735 384.717,976.654C375.059,974.957 365.772,971.735 356.561,968.488C356.284,968.391 356.009,968.289 355.736,968.183C339.897,962.034 323.401,956.973 309.232,947.35C293.487,936.802 282.232,920.552 265.539,911.258C253.254,905.034 241.733,897.591 230.557,889.626C232.038,899.581 233.622,909.557 233.736,919.644L233.737,919.764C233.857,936.933 233.37,954.183 230.463,971.125C228.051,988.801 226.266,1006.562 222.937,1024.094L222.934,1024.111C218.793,1045.841 215.711,1068.232 205.654,1088.254C205.401,1088.759 205.131,1089.256 204.847,1089.745C198.547,1100.594 192.745,1112.064 183.682,1120.903C179.632,1124.96 174.791,1127.729 169.598,1129.412C165.729,1139.771 158.865,1148.63 153.442,1158.204C153.072,1160.611 152.306,1165.244 151.554,1167.658C149.708,1173.855 147.472,1180.017 144.295,1185.63C138.022,1196.907 125.528,1201.684 114.288,1201.108C103.912,1211.885 92.842,1222.02 81.072,1231.23C80.314,1231.824 79.526,1232.377 78.71,1232.889C75.453,1234.934 71.965,1235.894 68.439,1236.097C63.959,1240.58 59.17,1244.737 53.811,1248.201L53.56,1248.361C43.245,1254.874 30.864,1258.094 18.647,1256.881C7.774,1255.8 -1.473,1248.482 -5.022,1238.147C-8.571,1227.813 -5.772,1216.357 2.144,1208.824C4.306,1206.767 6.767,1205.092 9.205,1203.386C9.018,1198.744 9.988,1194.066 12.115,1189.798C15.817,1182.366 20.953,1175.888 26.461,1169.746C25.755,1169.598 25.047,1169.426 24.337,1169.233C11.981,1165.863 3.497,1154.526 3.748,1141.722C3.897,1134.117 6.443,1127.166 10.948,1121.361C16.707,1113.391 23.791,1106.009 26.747,1096.449C29.408,1087.137 32.041,1077.815 34.826,1068.592C37.692,1058.702 41.391,1048.836 41.535,1038.432L41.536,1038.391C41.755,1024.134 41.847,1009.8 39.934,995.643L39.897,995.356C38.977,987.971 34.535,981.723 31.683,975.019C27.208,965.445 24.193,955.303 20.119,945.594C15.258,934.887 13.981,923.084 10.719,911.889C10.665,911.704 10.613,911.518 10.562,911.331C5.663,893.123 -2.079,875.258 -1.91,856.09C-2.037,847.48 -2.28,838.845 -2.365,830.211C-4.277,828.186 -5.96,825.922 -7.334,823.396C-12.356,814.49 -14.943,804.429 -16.463,794.529C-18.219,783.645 -16.89,772.67 -16.796,761.751C-16.793,761.411 -16.784,761.071 -16.769,760.731C-16.313,750.607 -16.53,740.361 -14.448,730.387C-9.382,705.646 -3.322,680.874 5.733,657.252ZM1019.876,380.326C1019.441,382.491 1019.083,383.864 1019.083,383.864C1019.083,383.864 1019.685,381.893 1019.866,380.905L1019.876,380.326Z" style="fill:white;"/>
            </g>
            <g transform="matrix(0.950749,0,0,0.950749,24.952881,30.915249)">
                <g>
                    <path d="M570.46,28.71C581.62,27.65 592.77,25.58 604.03,26.38C622.18,26.59 640.1,29.66 658.11,31.61C671.29,33.03 684.36,35.49 697.18,38.84C719.37,44.82 741.85,50.16 763.23,58.73C770.29,62.16 777.77,64.63 784.73,68.27C795.51,73.75 807.55,77.93 815.76,87.26C819.84,91.51 822.53,97.31 827.93,100.14C842.31,108.34 856,117.73 868.94,128.06C872.9,131.09 876.49,134.57 879.63,138.44C885.98,144.87 893.62,149.83 901.05,154.91C906.73,159.19 911.81,164.18 916.78,169.25C922.84,175.28 926.98,182.95 930.12,190.83C931.86,197.41 932.13,204.5 935.51,210.58C940.21,218.87 946.32,226.24 952.4,233.55C959.21,242.89 962.24,254.48 969.47,263.57C973.76,268.98 978.29,274.27 981.6,280.38C985.19,286.95 988.45,293.72 991.4,300.6C993.92,308.14 994.15,317.01 999.89,323.09C999.64,323.62 999.16,324.68 998.91,325.21C999.91,325.58 1000.93,325.92 1001.98,326.24C998.86,329.88 1001.2,334.63 1001.62,338.78C1002.77,347.84 1003.15,357.1 1002.09,366.18C1000.28,371.58 999.4,377.48 995.97,382.16C994.6,380.19 992.75,378.3 992.38,375.85C992.86,373.24 994.92,370.81 993.94,368.08C992.7,363.16 991.36,358.24 990.81,353.19C989.93,347.3 990.83,341.04 988.08,335.56C986.04,337.31 984.05,339.13 982.09,340.97C986.77,348.82 988.71,358.01 987.86,367.11C987.24,370.19 988.87,372.95 989.46,375.88C988.79,379.27 987.57,382.52 987.08,385.95C986.11,391.01 986.14,396.33 984.09,401.13C981.32,408.34 977.79,415.23 974.34,422.13C975.48,428.21 975.95,434.43 977.6,440.41C979.68,448.11 979.8,456.14 980.59,464.03C982.66,475.26 982.13,486.85 985.07,497.96C988.35,508.35 989.64,519.21 991.73,529.88C993.67,544.39 997.38,558.59 999.41,573.09C1000.92,598.91 995.47,624.38 992.48,649.9C991.75,657.61 991.21,665.34 990.56,673.06C990.18,677.72 988.8,682.24 988.61,686.92C987.86,699.25 987.85,711.61 987.09,723.95C986.05,737.18 983.21,750.17 979.66,762.95C976,774.85 973.51,787.14 968.69,798.67C965.34,805.51 962.82,812.7 959.8,819.67C954.98,828.54 950.01,837.33 945.18,846.19C941.02,853.02 937.26,860.14 934.67,867.72C930.87,877.4 925.31,886.29 921.58,896.01C924.64,898.99 929.53,900.72 930.83,905.1C931.62,908.14 928.16,908.32 926.01,908.37C921.95,908.28 918.96,905.11 915.74,903.06C910.15,909.97 904.23,916.69 897.36,922.36C891.76,926.57 885.75,930.23 879.65,933.67C870.53,938.28 860.85,942.24 853.13,949.13C846.83,954.61 840.03,959.5 832.97,963.97C827.57,967.64 822.16,971.35 816.3,974.28C808.94,978.18 800.9,980.59 793.61,984.63C786.4,988.57 778.19,991.47 769.86,990.51C763.02,989.81 756.27,988.44 749.47,987.44C747.31,989.29 745.03,991.52 741.93,991.22C732.97,991.22 723.78,991.56 715.1,988.99C702.67,985.89 689.82,984.58 677.02,984.82C669.84,984.96 662.64,984.64 655.5,985.5C655.38,987.07 655.2,988.64 654.96,990.22C653.43,990.81 651.95,989.74 650.49,989.44C650.83,988.48 651.51,986.56 651.84,985.6C642.86,981.25 632.68,982.01 623,981.88C615.28,981.74 607.5,982.02 599.86,980.71C586.53,979.59 573.16,978.91 559.86,977.44C554.61,976.81 549.29,977.33 544.04,976.61C533.23,975.19 522.24,975.1 511.58,972.58C495.5,969.75 480.68,962.52 465.01,958.23C458.72,957.26 452.5,955.4 446.09,955.64C441.57,956.07 437.61,953.15 433.09,953.3C418.62,952.66 404.08,952.08 389.85,949.18C381.6,947.77 373.71,944.9 365.85,942.13C351.94,936.73 337.29,932.65 324.83,924.16C308.25,913.08 296.23,896.2 278.59,886.54C253.59,873.96 232.09,855.82 209.87,839.06C207.18,836.88 204.12,834.84 202.49,831.7C197.83,821.05 190.84,811.68 185.61,801.33C182.61,796.1 180.36,790.19 175.75,786.11C180.89,799.13 184.16,812.8 189.39,825.8C193.51,836.47 195.01,847.83 196.96,859.03C199.5,869.55 200.94,880.29 202.51,891C203.91,900.61 205.68,910.22 205.79,919.96C205.9,935.63 205.54,951.38 202.84,966.85C200.46,984.21 198.75,1001.66 195.48,1018.88C191.82,1038.09 189.57,1058.01 180.68,1075.71C175.61,1084.44 171.37,1093.96 163.99,1101.07C162.02,1103.13 159.12,1103.47 156.41,1103.52C162.68,1088.2 172.63,1074.35 176.47,1058.05C178.74,1049.07 182,1040.2 182.47,1030.87C179.14,1036.5 176.85,1042.7 173.19,1048.16C166.89,1057.6 162.13,1067.93 157.05,1078.05C151.23,1090.82 147.77,1104.48 143.98,1117.94C140.87,1128.7 133.06,1137.08 127.83,1146.77C125.56,1150.7 126.09,1155.43 124.77,1159.68C123.51,1163.91 122.09,1168.16 119.89,1172.01C118.81,1174.1 115.93,1173.59 114.14,1172.85C111.28,1171.72 110.08,1168.64 108.44,1166.3C104.36,1169.31 101.75,1173.73 98.29,1177.35C87.64,1188.82 76.17,1199.58 63.85,1209.22C61.19,1210.89 59.67,1207.46 58.31,1205.8C52.34,1212.67 46.36,1219.74 38.64,1224.73C33.54,1227.95 27.45,1229.67 21.41,1229.07C25.13,1225.53 29.8,1223.21 33.59,1219.75C43.2,1211.44 53.98,1202.64 56.87,1189.6C50.24,1191.89 48.79,1199.84 42.74,1202.89C40.96,1204.15 38.93,1202.62 37.13,1202.26C41.22,1194.05 47.91,1187.61 54.13,1181.02C58.21,1176.81 60.34,1171.27 63.41,1166.38C67.83,1158.08 69.89,1148.81 73.01,1139.99C74.02,1136.99 75.07,1133.84 74.39,1130.65C73.43,1124.75 74.29,1118.81 74.83,1112.93C72.99,1114.02 71.3,1115.35 69.78,1116.85C63.79,1122.59 57.24,1127.7 50.52,1132.57C46.02,1136.24 41.13,1139.47 35.81,1141.84C34.5,1142.51 33.12,1142.66 31.69,1142.27C31.72,1140.74 32.29,1139.36 33.25,1138.22C40.85,1127.5 49.67,1117.19 53.55,1104.37C56.21,1095.06 58.84,1085.74 61.64,1076.47C65.2,1064.16 69.3,1051.77 69.48,1038.82C69.72,1023.17 69.73,1007.44 67.63,991.9C66.37,981.79 60.94,972.97 57.23,963.67C52.7,954.15 49.79,944 45.69,934.31C41.23,924.76 40.47,914.09 37.55,904.07C33.28,888.2 25.79,872.8 26.04,856.04C25.71,833.1 24.24,809.95 28.1,787.21C29.6,775.28 33,763.73 35.12,751.92C36.44,744.3 38.65,736.86 39.66,729.19C41.76,714.64 45.48,700.4 48.08,685.94C49.38,679.16 51.49,672.56 52.82,665.78C54.87,655.45 60.57,646.33 63.06,636.14C59.5,638.69 57.45,642.64 55.43,646.41C52.67,651.56 50.51,656.99 48.15,662.34C43.62,672.11 40.64,682.5 36.46,692.41C32.02,706.25 28.54,720.37 24.23,734.25C20.26,745.44 21.25,757.52 19.46,769.11C17.7,779.61 17,790.45 19.12,800.96C20.03,805.55 21.98,809.85 23.09,814.39C20.81,813.34 18.32,812.24 17.13,809.88C13.66,803.84 12.17,796.9 11.13,790.09C9.62,780.76 11.07,771.35 11.15,761.99C11.54,753.34 11.13,744.57 12.92,736.05C19.22,705.27 26.99,674.38 41.07,646.13C37.77,646.1 34.47,646.08 31.2,645.74C35.5,640.71 41.78,638 46.22,633.16C51.99,625.65 56.59,617.35 60.9,608.96C70.66,591.43 82.82,575.16 97.15,561.11C105.15,553.77 113.84,546.94 123.53,541.97C120.69,534.03 117.17,525.8 118.16,517.2C120.74,509.05 127.57,502.57 135.45,499.49C138,498.21 141.4,497.14 142.26,494.08C141.28,490.42 138.04,487.95 136.34,484.64C133.79,480.59 132.92,475.83 131.71,471.27C129.44,472.19 127.14,473.05 124.79,473.75C127.56,465.32 130.04,456.75 133.67,448.64C135.66,443.49 136.25,437.96 137.77,432.68C139.83,422.59 138.73,412.15 140.52,402.02C141.56,397.79 143.21,393.35 141.74,389C140.44,384.99 139.42,380.64 140.69,376.48C143.22,368.77 147.71,361.92 152.58,355.5C162.41,339.91 165.88,321.5 170.99,304.06C173.66,295.69 175.46,286.84 180.31,279.37C183.56,274.09 188.72,270.34 191.88,265.01C194.83,260.65 195.32,255.27 197.54,250.58C202.58,236.49 205.9,220.75 216.84,209.79C220.4,205.91 225.73,205.25 230.63,204.48C235.04,197.72 240.44,191.7 246.14,186.01C249.41,182.62 252.77,179.19 254.88,174.91C260.28,164.22 267.16,154.19 275.7,145.76C278.29,142.87 282.54,143 285.5,140.68C289.16,138 292.26,134.65 295.25,131.26C300.5,125.06 307.22,120.26 314.31,116.39C317.97,114.33 322.16,113.62 325.95,111.9C333.19,108.38 339.53,103.31 346.62,99.55C354.44,95.94 361.87,91.62 369.27,87.24C386.23,79 401.8,67.85 419.79,61.85C430.77,57.99 442.62,58.39 454.06,59.1C461.04,59.14 468.41,59.93 475.02,57.17C469.33,53.29 462.4,52.16 455.99,49.99C443.43,45.83 430.09,45.59 417.03,44.45C408.47,43.78 400.06,41.54 392.27,37.95C393.59,35.69 395.18,33.26 397.9,32.59C408.07,30.31 418.54,29.39 428.95,29.91C443.86,30.21 458.79,32.38 473.01,36.92C483.82,41.61 494.76,46.16 504.94,52.14C508.26,54 511.15,57.07 515.03,57.64C520.51,55.73 526.19,53.61 530.56,49.64C533.69,46.9 537.41,45 540.99,42.93C544.09,41.16 546.21,38.15 549.26,36.3C555.64,32.19 563.11,30.24 570.46,28.71M596.6,36.05C597.42,38.64 597.95,42.17 601.03,43.01C604.35,43.41 605.07,38.47 603.29,36.59C601.14,35.88 598.82,36.13 596.6,36.05M544.06,90.17C538.88,86.35 532.22,87.6 526.26,88.13C528.21,90.84 531.85,93.21 530.95,97.05C530.02,100.09 526.96,102.18 523.91,102.63C520.52,102.39 519.02,98.6 515.97,97.67C514.06,99.13 512.8,101.39 510.6,102.48C503.64,104.31 496.02,104.16 489.54,107.54C483.34,112.37 478.28,118.64 474.52,125.53C470.21,133.08 465.48,140.38 460.54,147.54C449.87,162.77 438.86,177.78 427.46,192.47C424,197 420.06,201.16 416.88,205.9C409.74,217.28 402.51,228.63 394.58,239.49C392.57,241.72 390.16,245.37 386.66,244.08C386.42,236.61 387.31,228.87 389.84,221.8C398.87,204.1 407.86,186.36 416.47,168.44C417.75,166 418.37,163.29 418.25,160.53C411.6,159.79 406.65,165.31 403.33,170.36C399.84,174.62 397.93,180.04 393.79,183.76C387.06,190.41 379.98,196.73 372.45,202.45C367.32,205.8 362.03,208.91 356.47,211.49C353.36,212.97 351.95,216.52 348.79,217.95C339.99,222.3 333.11,229.47 325.54,235.55C320.79,239.84 315.24,244.21 313.68,250.76C311.56,251.88 309.64,253.38 308.31,255.41C302.14,263.94 296.7,272.97 290.55,281.51C287.7,285.46 285.64,289.89 283.01,293.97C280.71,297.6 277.61,300.82 276.37,305.02C275.45,308.36 273.92,311.5 273.1,314.87C271.01,322.38 267.74,329.51 265.8,337.06C264.77,340.5 267.3,343.73 266.8,347.2C266.03,353.13 262.98,358.41 260.64,363.82C257.73,369.77 255.42,376.08 251.61,381.55C248.71,385.4 249.16,390.49 248.39,395.01C248.12,398.86 246.58,402.43 245.69,406.16C255.81,406.97 266.1,406.88 276.17,405.5C277.71,401 279.42,396.56 280.8,392.01C281.98,388.17 280.15,384.31 280.14,380.45C282.94,381.38 283.64,384.3 284.3,386.83C287.11,387.32 290,387.9 292.26,389.78C295.09,392.04 298.74,392.43 302.19,393.01C302.1,397.67 299.21,401.59 298.54,406.13C300.62,406.57 302.73,406.95 304.87,406.98C316.23,407.31 327.68,407.36 338.88,409.54C351.24,410.28 363.72,410.35 376.05,409.14C390.97,410.88 406.04,410.69 420.99,412.09C427.34,413.1 433.65,414.78 440.13,414.75C444.69,414.19 445.34,408.72 447.69,405.64C454.28,396.12 465.16,390.4 476.11,387.42C481.09,386.47 485.87,384.39 491,384.32C500.34,383.88 509.69,384.05 519.03,384.37C528.62,384.7 537.97,387.08 547.53,387.76C560.84,390.43 573.92,394.15 586.99,397.82C605.49,403.64 624.17,411.03 638.75,424.22C645.15,429.88 648.95,437.72 651.86,445.61C661.86,442.57 671.75,439.15 681.87,436.49C684.93,435.45 688.22,435.65 691.24,436.75C703.56,439.93 716.49,445.87 722.83,457.53C725.03,453.93 727.29,450.24 731,447.98C736.56,444.1 742.51,440.52 749.06,438.61C776.11,434.25 803.61,434.21 830.94,434.86C839.23,434.94 847.22,437.57 854.93,440.41C863.3,443.53 870.89,448.6 877.01,455.1C884.13,462.73 890.98,470.69 896.33,479.69C898.19,479.4 900.04,478.84 901.95,478.87C911.41,479.47 920.85,480.95 929.91,483.81C942.32,487.81 954.09,493.82 967.03,496.14C966.3,486.05 966.22,475.9 964.8,465.87C964.3,461.49 961.86,457.49 962.2,453C962.39,449.43 961.21,446.03 960.2,442.68C956.75,431.17 954.83,419.28 951.24,407.81C948.85,394.6 947.67,381.21 946.12,367.89C945.56,361.97 943.29,356.35 943.17,350.37C939.96,349.95 936.42,350.28 933.61,348.42C930.58,346.47 931.3,342.35 929.3,339.7C927.13,336.66 926.38,332.54 928.01,329.1C929.05,326.69 931.69,325.77 933.68,324.32C929.29,314.87 923.18,306.31 916.88,298.06C914.25,294.08 908.12,294.5 906.23,289.84C904.34,286.93 904.98,283.61 905.58,280.45C895.69,265.88 881.25,254.72 872.9,239.04C870.09,233.91 867.05,228.81 865.56,223.11C861.23,222.13 857.59,219.5 854.01,217.01C847.21,211.98 839.98,207.05 835.43,199.75C834.08,207.2 839.58,213.04 842.87,219.07C845.22,226.07 849.99,231.82 853.6,238.17C857.69,245.21 863.37,251.12 869.05,256.89C875.69,263.22 882.24,269.71 889.52,275.33C892.56,277.15 896.64,279.72 895.89,283.86C894.44,286.08 891.58,286.61 889.14,286.8C883.02,287.03 877.82,283.29 873.18,279.78C862.33,271.53 854.5,260.19 846.9,249.06C842.23,241.08 836.79,233.54 832.84,225.16C827.75,214.76 823.17,204.14 818.23,193.68C815.57,188.56 810.78,185.12 806.55,181.41C795.53,171.77 784.23,162.42 773.9,152.02C769.28,147.67 764.91,142.96 759.53,139.5C752.96,135.21 745.02,133.78 738.37,129.64C731.09,125.87 725.97,119.16 718.83,115.18C710.46,110.38 701.72,106.02 692.42,103.33C679.62,99.25 666.44,96.04 653.02,95.13C649.53,95.35 645.76,94.36 642.65,96.46C637.52,98.67 634.26,105.13 628.03,104.3C623.94,104.25 621.81,100.22 618.61,98.35C616.4,98.4 613.93,99.65 611.99,98.02C608.83,96.51 610.66,91.07 606.89,90.49C599.14,89.24 591.16,90.1 583.5,88.22C578.65,87.85 573.94,89.5 569.15,89.92C566.12,89.89 564.07,86.76 564.19,83.95C564.51,82.07 565.23,80.3 565.79,78.48C562.83,78.72 559.97,79.54 557.05,79.96C554.98,80.21 553.23,78.71 551.21,78.56C547.93,81.86 547.02,86.67 544.06,90.17M623.09,79.68C624.62,82.01 627.04,84.11 629.98,82.94C628.01,81.23 625.66,80.12 623.09,79.68M778.26,133.47C778.79,134.58 779.35,135.68 779.93,136.79C779.57,138.15 779.15,139.5 779,140.9C780.69,143.8 783.33,145.96 785.67,148.33C791.44,153.8 797.02,159.52 803.33,164.38C801.19,160.27 798.63,156.38 796.95,152.05C795.75,148.87 793.72,146.1 791.35,143.71C787.43,139.79 783.49,135.61 778.26,133.47M854.44,149.93C854.18,150.25 853.68,150.89 853.42,151.21C854.13,154.73 858.15,149.38 854.44,149.93M931.54,257.09C933.93,264.16 938.07,270.91 944,275.55C944.57,274.14 946.15,272.74 945.2,271.12C943.65,264.24 937.34,260.18 931.54,257.09M962.72,278.95C963.02,289.41 965.7,299.65 968.3,309.74C969.6,316.26 976.65,318.4 980.6,322.98C981.26,321.98 983.12,321.41 982.74,319.95C981.79,312.67 977.73,306.32 975.33,299.48C972.22,292.11 969.6,283.73 962.72,278.95M223.29,332.37C223.82,332.99 223.82,332.99 223.29,332.37M218.45,381.48C217.4,383.15 217.1,385.14 216.6,387.02C218.95,388.63 221.4,390.09 223.96,391.34C225.61,388.26 226.9,385 227.66,381.59C224.64,381.12 221.42,380.38 218.45,381.48M189.41,382.4C187.54,383.96 187.11,386.44 186.66,388.7C188.47,387.28 190.17,385.67 191.28,383.63C190.68,383.17 190.06,382.76 189.41,382.4M460.55,410.46C456.13,415.16 456.03,422.07 456.24,428.13C456.45,439.41 461.38,450.61 469.84,458.13C477.17,464.84 484.84,471.16 492.33,477.69C504.72,487.3 519.29,494.84 535.09,496.28C550.26,497.98 565.64,498.17 580.8,496.2C589.35,495.07 598,493.93 606.13,490.9C604.1,489.8 602.11,488.62 600.36,487.13C604.4,485.49 608.54,483.86 612.93,483.51C615.89,483.26 619.03,483.2 621.67,481.63C626.51,478.95 629.62,474.14 632.49,469.57C633.83,467.2 635.6,464.78 635.44,461.92C634.24,459.17 631.79,457.1 630.84,454.19C629.01,450.17 631.62,446.1 632.72,442.28C629.19,439.66 625.38,437.19 621.02,436.25C616.44,435.46 611.83,433.57 608.58,430.18C606.64,427.02 610.07,424.07 612.24,422.17C607.88,418.76 602.3,417.93 597.43,415.54C589.89,412.13 581.99,409.63 573.94,407.79C561.76,404.91 549.65,401.16 537.1,400.39C531.55,399.82 526.26,401.85 520.79,402.21C517.92,401.84 517.11,398.66 516.5,396.31C508.97,395.87 501.41,395.99 493.89,396.54C481.68,397.38 469.32,401.67 460.55,410.46M229.69,419.71C227.64,422.75 228.72,427.26 225.72,429.8C222.59,429.79 219.36,427.86 216.33,429.36C212.98,431.12 209.01,430.83 205.65,432.56C200.29,433.57 194.91,434.76 189.92,437.06C194.1,440.13 199.66,440.08 203.91,443.05C213.93,448.77 219.95,458.9 226.09,468.26C227.55,470.06 226.61,472.7 224.85,473.92C220.83,476.87 214.99,475.86 211.31,479.4C209.16,482.06 208.28,485.45 206.95,488.54C211.46,492.89 216,497.32 221.47,500.46C220.73,504.06 218.99,508.45 214.92,509.2C210.74,509.95 207.34,512.59 203.6,514.38C201.39,515.55 198.94,514.56 196.69,514.12C198.91,502.77 203.11,491.91 204.79,480.45C200.92,480.36 196.14,479.01 195.02,474.78C194.82,471.12 196.87,467.77 199.67,465.56C203.12,463.14 202.31,457.21 198.46,455.66C195.22,454.4 191.67,453.89 188.21,454.05C182.86,454.88 179.83,460.1 177.38,464.41C174.41,469.32 175.86,475.22 176.66,480.52C178.08,488.41 183.92,495.8 181.67,504.06C181.98,507.11 183.77,509.69 185.54,512.1C184.75,513.61 184.38,515.22 184.42,516.94C186.96,516.11 189.2,514.58 191.73,513.74C192.78,514.38 193.79,515.08 194.77,515.84C194.31,518.1 194.15,520.42 193.48,522.63C192.08,524.21 190.14,525.18 188.51,526.5C191.37,531 194.1,536.3 198.96,538.88C202.61,538.11 205.83,536.08 209.29,534.77C210.51,537.38 211.89,540.1 211.8,543.07C210.3,546.9 206.17,549.36 202.16,549.65C196.46,550.21 190.72,550.27 184.99,550.19C182.71,549.94 179.37,550.73 179.01,547.58C178.18,552.7 177.66,557.88 176.39,562.92C174.06,576.51 173.54,590.34 172.67,604.08C172.59,608.34 170.29,612.04 169.13,616.04C166.61,622.72 167.29,629.96 167.2,636.95C167.45,646.63 167.42,656.32 168.06,665.99C168.35,670.15 168.57,674.62 171.3,678.02C164.01,685.12 167.69,697.39 160.22,704.4C161.94,709.53 163.93,714.63 164.55,720.05C166.73,729.5 171.37,738.08 175.16,746.92C183.82,762.13 189.8,779.04 200.82,792.79C202.15,792.85 203.48,792.88 204.81,792.89C204.45,794.34 203.6,795.94 204.79,797.28C209.87,805.89 215.1,814.42 219.88,823.21C222.12,827.13 225.57,830.17 229,833.04C237.1,839.8 246.11,845.33 254.58,851.6C257.85,854.01 261,856.8 264.99,857.92C268.94,858.93 271.44,862.41 274.86,864.38C277.79,866.38 281.23,867.45 284.74,867.88C284.71,869.23 284.63,870.57 284.75,871.94C287.13,874.05 290.07,875.4 292.63,877.29C297.05,880.21 301.05,883.72 305.6,886.44C306.85,887.45 308.32,886.39 309.65,886.19C318.28,892.77 327.27,898.89 336.73,904.22C347.69,910.4 358.86,916.54 371.04,919.98C379.19,922.39 387.01,926.02 395.48,927.3C403.35,928.42 411.15,930.02 419.08,930.66C429.6,932.44 439.81,935.56 450.25,937.77C454.95,938.65 459.23,941.01 464.05,941.39C476.31,944.74 488.73,947.53 501.23,949.92C530.32,955.39 559.37,962.06 589.05,963.2C594.18,963.14 599.3,963.47 604.42,963.85C618.25,965.02 632.16,965.25 646.01,964.48C643.06,961.53 639.26,959.26 635.02,959.01C633.37,959.24 631.8,960.17 630.11,959.76C629.46,955.36 633.98,951.72 638.08,951.66C645.62,951.38 653.17,951.87 660.7,952.18C660.79,953.77 660.96,955.37 660.87,956.99C659.57,958.61 657.6,959.58 656.42,961.31C655.5,962.85 656.42,964.5 656.84,966.04C668.42,968.13 680.26,967.24 691.96,967.77C707.62,967.84 723.29,967.78 738.95,967.8C753.07,967.7 767.34,967.83 781.18,964.54C779.48,960.44 777.02,956.47 776.87,951.92C776.78,949.51 778.06,947.22 780.01,945.87C782.67,946.38 785.36,947.82 786.52,950.4C788.52,954.77 787.79,959.73 788.47,964.38C800.19,963 811.71,959.1 821.35,952.2C826.71,949.3 831.49,945.51 836.71,942.39C832.9,936.85 831.52,927.98 837.11,923.17C840.72,922.96 843.64,926.03 844.22,929.44C845.01,931.11 844.99,935.32 847.8,933.87C852.71,931.28 856.95,927.61 861.39,924.31C869.91,917.51 878.65,911 887.04,904.04C891.81,899.39 895.93,894.1 899.76,888.66C900.8,886.91 902.64,884.81 901.19,882.75C898.89,881.81 896.94,884.37 894.73,884.76C891.69,885.43 887.3,885.87 885.38,882.85C884.24,876.92 889.33,872.75 893.29,869.27C895.84,867.16 898.99,863.99 902.59,865.69C906.39,867.54 907.61,871.97 909.77,875.3C914.69,868.73 918.42,861.38 921.9,853.98C927.04,843.95 932.07,833.88 937.1,823.8C944.68,808.36 954.1,793.69 958.96,777.05C961.3,771.3 961.69,765.01 964.01,759.26C966.87,749.72 969.04,739.96 970.47,730.11C971.64,722.42 970.6,714.67 970.39,706.97C970.77,693.96 971.81,680.95 973.9,668.1C975.7,655.12 976.2,642 978.01,629.02C980.21,616.47 981.51,603.57 979.72,590.88C979.04,585.83 978.83,580.67 977.1,575.84C976.05,567.8 973.27,560.05 972.96,551.91C972.59,545.05 971.61,538.23 970.28,531.49C969.33,526.91 970.86,522.38 971.37,517.86C971.85,515.26 969.02,513.97 967.23,512.83C958.54,508.29 949.06,505.61 939.83,502.43C933.84,500.48 928.26,497.42 922.08,496.07C914.51,494.39 906.95,492.32 899.15,492.2C897.99,496.29 896.96,500.43 895.28,504.35C891.8,512.5 885,518.7 877.8,523.59C867.3,528.48 856.61,533.61 844.99,535.14C838.34,535.87 831.79,537.86 825.05,537.35C804.49,536.37 784.12,532.17 764.66,525.57C760.44,524.26 755.9,524.14 751.87,522.2C743.13,518.73 735.89,512.57 727.6,508.29C725.24,515.96 722.86,524.97 715.31,529.16C710.6,531.71 705.4,534.16 699.93,533.96C696.12,533.85 695.44,528.9 697.25,526.33C701.82,519.68 708.93,515.25 713.52,508.61C714.63,507.08 715.1,504.92 713.8,503.36C710.55,498.03 707.7,492.47 705.06,486.82C701.73,479.5 701.31,470.9 704.17,463.36C704.77,461.65 705.82,459.92 705.3,458.05C704.66,455.14 701.55,453.99 699.08,453.04C692.64,450.92 685.41,449.65 678.88,452.13C670.92,453.41 663.11,455.73 655.7,458.92C650.28,460.85 650.48,467.52 648.18,471.89C642.21,484.24 632.26,495.64 618.92,500.07C611.59,503.31 603.64,504.61 595.85,506.25C584.72,508.34 573.55,510.65 562.17,510.75C551.87,510.81 541.53,511.2 531.26,510.24C518.77,508.07 506.69,503.63 495.67,497.38C487.91,493.04 481.3,487.04 474.5,481.4C465.85,473.82 456.16,466.96 449.93,457.1C448.33,452.51 446.68,447.93 444.78,443.46C443.77,438.7 443.82,433.35 440.69,429.34C438.4,428.33 435.87,428.15 433.43,427.81C422.32,426.49 411.18,425.28 399.98,425.1C375.43,421.79 350.47,424.64 325.9,421.29C315.96,420.28 306,419.16 296,419.09C283.12,419.68 270.26,418.41 257.39,418.9C258.45,419.88 259.54,420.85 260.63,421.81C260.13,423.82 259.12,425.89 259.88,427.98C262.05,436.38 264.19,445 263.7,453.75C255.47,453.21 247.23,453.45 239.01,453.9C236.28,454.1 233.54,453.9 230.84,453.46C231.8,449.43 233.38,445.6 234.42,441.6C235.69,437.26 237.07,432.61 240.45,429.42C241.96,427.96 244.19,428.54 246.07,428.4C246.75,428.88 248.09,429.84 248.76,430.32C251.58,427.34 253.02,423.46 254.55,419.75C246.34,419.03 237.79,417.86 229.69,419.71M165.15,432.2C162.92,436.8 163.48,442.03 163.42,446.98C166.19,443.97 169.56,441.42 171.83,438C171.66,432.32 171.31,426.52 169.5,421.1C168.12,424.83 166.87,428.61 165.15,432.2M789.43,446.77C784.05,447.8 778.52,447.45 773.15,448.53C764.8,450.15 756.02,450.34 748.17,453.91C742.38,456.52 738.23,461.61 734.95,466.88C732.45,470.78 730.63,475.27 730.61,479.96C731.06,484.1 733.93,487.36 736.28,490.6C741.6,497.46 747.71,504.27 755.82,507.79C765.72,511.1 775.56,514.72 785.75,517.1C789.9,517.49 793.71,519.36 797.86,519.78C810.4,521.85 823.17,525.32 835.93,522.94C851.63,521.35 868.3,516.2 878.7,503.63C882.01,499.44 885.36,493.87 883.39,488.39C880.22,479.5 874.06,472.16 867.86,465.22C861.68,459.5 854.55,454.67 846.79,451.35C833.34,446.98 819.03,446.07 804.97,446.2C799.78,446.25 794.57,445.94 789.43,446.77M138.98,452.34C138.71,454.17 138.37,456.03 138.51,457.9C138.78,459.51 139.62,462.15 141.69,460.67C141.61,457.69 140.37,454.92 138.98,452.34M146,511.91C146.32,522.25 151.52,531.54 154.6,541.19C157.21,546.58 158.82,552.56 162.8,557.18C165.16,550.65 161.1,544.73 158.86,538.88C155.95,530.77 153.2,522.48 152.77,513.81C152.32,512.35 152.92,509.73 150.86,509.47C149.08,509.26 145.65,509.32 146,511.91M160.57,513.17C159.7,522.32 162.72,531.45 165.92,539.92C167.43,537.25 168.72,534.47 170.02,531.69C168.02,529.1 165.92,526.55 164.41,523.63C162.61,520.34 162.32,516.48 160.57,513.17M137.32,515.21C135.51,517.01 133.79,519.31 133.57,521.93C134.97,528.4 137.79,534.46 140.56,540.44C141.87,543.17 141.72,546.6 144.12,548.75C148.37,553.04 151.55,558.19 155.16,562.99C156.56,564.62 158.52,567.14 160.91,565.71C160.46,563.63 158.99,562.05 157.75,560.42C153.99,555.75 151.5,550.24 148.88,544.89C145.59,537.77 142.3,530.56 140.61,522.87C139.98,520.23 140.21,517.39 138.97,514.93C138.56,515 137.73,515.14 137.32,515.21M184.38,525.87C183.84,527.47 184.39,528.02 186.03,527.54C186.56,525.93 186.01,525.37 184.38,525.87M132.26,581.74C135.54,579.37 137.61,575.8 140.55,573.08C139.83,572.66 138.39,571.82 137.67,571.4C134.56,573.99 132.47,577.64 132.26,581.74M150.46,576.91C152.09,579.1 153.97,581.09 155.92,583C156.6,580.92 157.25,578.84 157.85,576.74C155.38,576.61 152.92,576.68 150.46,576.91M154.64,598.44C154.86,596.23 154.86,594 154.68,591.81C153.15,593.89 153.39,596.3 154.64,598.44M101.73,765.58C99.81,771.43 99.58,778.43 103.29,783.65C104.98,777.68 103.55,771.35 101.73,765.58M52.25,820.2C51.11,830.86 53.45,841.48 54.82,852.01C55.29,855.95 56.07,859.91 58.06,863.4C58.42,850.39 57.89,837.19 54.61,824.54C54.2,822.91 53.19,821.54 52.25,820.2M184.62,876.49C183.92,894.06 187.22,911.47 188.47,928.96C189.27,934.89 188.58,941.37 191.79,946.71C193.01,939.54 192.31,932.25 192.34,925.03C191.97,915.05 192.35,904.92 189.87,895.16C188.82,888.79 189.21,881.64 184.62,876.49M156.79,896.23C156.9,903.25 158.14,910.35 160.96,916.82C162.53,909.87 162.02,901.58 156.79,896.23M88.74,959.28C88.56,961.8 88.56,964.34 88.84,966.86C90.01,964.4 89.82,961.72 88.74,959.28M83.5,1045.56C82.27,1046.54 83.57,1049.38 85.06,1048.06C86.29,1047.04 85.01,1044.21 83.5,1045.56M80.33,1117.63C82.97,1113.47 84.06,1108.6 84.26,1103.73C82.97,1108.37 79.59,1112.58 80.33,1117.63M78.55,1120.33C77.28,1121.25 78.75,1123.6 80.07,1122.48C81.31,1121.52 79.88,1119.17 78.55,1120.33M76.85,1125.3C75.6,1126.19 76.96,1128.61 78.32,1127.51C79.57,1126.59 78.2,1124.19 76.85,1125.3M101.09,1127.41C98.17,1130.46 96.12,1134.23 94.78,1138.22C98.05,1135.58 102.07,1132.08 101.09,1127.41M58.46,1205.12C60.63,1203.67 62.54,1201.84 63.94,1199.64C60.96,1200.08 59.17,1202.34 58.46,1205.12Z" style="fill-rule:nonzero;"/>
                    <path d="M635.15,113.21C635.19,111.53 638.17,111.68 638.43,113.19C638.29,114.89 635.36,114.84 635.15,113.21Z" style="fill-rule:nonzero;"/>
                    <path d="M637.41,118.3C640.07,119.02 641.82,121.36 643.55,123.35C640.4,124.82 636.7,125.28 633.34,124.33C633.26,121.68 635.28,119.57 637.41,118.3Z" style="fill-rule:nonzero;"/>
                    <path d="M662.61,120.46C665.5,121.22 667.95,123.05 669.57,125.55C666.69,124.74 664.39,122.79 662.61,120.46Z" style="fill-rule:nonzero;"/>
                    <path d="M648.73,124.53C651.71,124.1 654.81,123.94 657.67,125.1C655.14,127.46 651.48,127.37 648.35,128.34C648.45,127.07 648.57,125.8 648.73,124.53Z" style="fill-rule:nonzero;"/>
                    <path d="M471.13,149.61C472.87,146.63 476.29,145.34 479.63,145.58C477.63,148.12 474.68,151.19 471.13,149.61Z" style="fill-rule:nonzero;"/>
                    <path d="M634.29,167.42C636.28,163.6 642.37,164.16 643.93,168.06C641.12,170.64 637.16,168.92 634.29,167.42Z" style="fill-rule:nonzero;"/>
                    <path d="M508.74,232.54C510.72,230.36 512.92,233.78 514.55,234.83C514.07,235.48 513.11,236.79 512.64,237.45C510.71,236.72 506.34,235.08 508.74,232.54Z" style="fill-rule:nonzero;"/>
                    <path d="M437.42,241.4C439.97,239.97 443.31,238.44 446.09,240.18C447.15,241.83 446.47,243.73 446.22,245.51C442.63,246.06 438.84,246.46 435.3,245.45C434.24,243.71 436.09,242.24 437.42,241.4Z" style="fill-rule:nonzero;"/>
                    <path d="M516.11,246.06C518.12,245.6 520.4,245.71 522.23,246.73C524.24,247.9 523.12,250.58 521.48,251.52C518.92,253.39 514.88,252.05 513.8,249.14C513.24,247.53 514.72,246.32 516.11,246.06Z" style="fill-rule:nonzero;"/>
                    <path d="M558.95,279.25C556.83,277.02 557.75,270.04 561.71,272.11C561.49,274.7 560.47,277.15 558.95,279.25Z" style="fill-rule:nonzero;"/>
                    <path d="M474.86,276.24C487.05,275.01 499.93,273.79 511.53,278.66C524.4,284.32 538.09,287.86 551.87,290.54C560.68,292.7 569.51,295.02 578.57,295.85C576.1,291.49 570.72,290.75 566.31,289.69C564.1,289.18 563.89,285.65 566.22,285.18C571.21,283.55 577.11,284.56 581.39,287.56C584.91,290.01 584.37,295.05 587.34,297.81C592.38,300.66 598.71,299.52 603.82,302.16C605.72,304.58 606.96,307.56 609.56,309.4C615.26,313.86 614.76,324.68 607.95,327.8C601.48,329.23 594.7,328.14 588.41,326.37C581.81,324.53 577,319.35 571.28,315.89C567.11,313.1 561.87,313.44 557.16,312.29C550.78,311.32 544.97,308.35 538.67,307.1C533.6,305.17 528.3,303.92 523.31,301.81C520.37,300.46 517.03,300.81 513.99,299.82C504.03,296.37 493.41,295.41 482.94,295.19C468.33,295.07 453.16,296.86 440.08,303.77C433.01,306.11 424.6,301.75 422,294.86C420.07,289.87 423.21,283.95 427.95,281.91C431.65,280.77 435.58,280.76 439.38,280.09C451.05,277.69 463.02,277.37 474.86,276.24Z" style="fill-rule:nonzero;"/>
                    <path d="M778.2,299.53C778.06,297.06 779.6,296.38 781.74,296.79C780.78,297.98 779.59,298.92 778.2,299.53Z" style="fill-rule:nonzero;"/>
                    <path d="M365.12,298.29C369.55,295.95 374.84,296.38 379.58,297.39C382.22,297.81 382.66,300.84 382.65,303.05C382.83,306.14 381.86,309.13 380.51,311.87C373.67,309.89 368.13,304.66 365.12,298.29Z" style="fill-rule:nonzero;"/>
                    <path d="M646.65,304.67C649.59,303.06 653.09,305.78 654.34,308.51C657.56,315.83 656.31,324.93 651.14,331.07C647.25,335.68 642.81,341.59 635.99,340.84C632.86,341.35 629.66,339.56 630.4,336.02C629.54,332.6 632.86,331.57 634.96,329.85C641.66,323.06 644.35,313.57 646.65,304.67Z" style="fill-rule:nonzero;"/>
                    <path d="M827.5,333.68C833.59,332.45 839.85,332.9 846.03,332.77C858.37,332.51 870.71,333.66 882.89,335.58C892.97,338.97 903.74,338.73 914.17,340.22C919.47,340.87 924.6,343.85 927.37,348.48C929.54,352.25 929.04,358.46 924.54,360.28C920.06,362.06 916.01,358.58 912.17,356.79C907.11,353.79 901.14,353.38 895.44,352.79C875.05,350.36 854.51,352.21 834.08,352.97C820.73,353.65 807.3,354 794.17,356.71C790.66,357.34 785.88,358.09 783.61,354.6C781.75,351.67 783.77,348.08 786.25,346.28C789.89,343.73 793.45,340.6 798,339.9C802.06,339.12 806.08,338.11 810.08,337.03C815.79,335.41 821.83,335.51 827.5,333.68Z" style="fill-rule:nonzero;"/>
                    <path d="M259.54,374.49C260.55,374.08 261.56,374.09 262.57,374.53C263.02,376.88 261.92,378.92 259.72,379.8C259.36,378.06 258.88,376.22 259.54,374.49Z" style="fill-rule:nonzero;"/>
                    <path d="M760.91,402.81C760.02,401.47 762.11,399.82 763.22,400.96C764.01,402.15 761.87,403.86 760.91,402.81Z" style="fill-rule:nonzero;"/>
                    <path d="M996.5,502.02C999.47,500.46 996.65,505.34 996.5,502.02Z" style="fill-rule:nonzero;"/>
                    <path d="M642.13,517.91C641.78,516.74 641.26,515.21 642.94,514.87C644.51,515.48 645.92,516.46 647.32,517.4C645.63,517.82 643.86,518.6 642.13,517.91Z" style="fill-rule:nonzero;"/>
                    <path d="M648.38,521.64C652.12,519.59 655.36,516.77 659.06,514.67C663.38,513.3 667.87,515.52 671.67,517.44C673.51,519.62 673.47,524.6 669.95,525.14C664.48,526.79 658.81,528.54 653.04,528.13C648.53,527.68 646.95,522.39 646.77,518.57C647.17,519.34 647.98,520.87 648.38,521.64Z" style="fill-rule:nonzero;"/>
                    <path d="M430.3,535.5C431.02,535.66 431.56,536.16 431.93,536.99C431.36,539.1 428.18,540.07 426.68,538.46C426.5,536.41 428.86,536.17 430.3,535.5Z" style="fill-rule:nonzero;"/>
                    <path d="M417.27,547.73C418.95,544.62 421.31,541.95 423.46,539.17C425.93,540.77 428.48,542.27 431.15,543.54C434.07,544.45 434.88,548.31 433.6,550.82C431.79,551.11 430.17,550.14 428.54,549.54C424.99,547.97 421.01,548.39 417.27,547.73Z" style="fill-rule:nonzero;"/>
                    <path d="M213.13,558.96C213.91,556.6 214.19,553.29 217.33,553.08C216.36,555.31 214.93,557.3 213.13,558.96Z" style="fill-rule:nonzero;"/>
                    <path d="M609.42,577.61C612.11,576.77 615.55,576.38 617.86,578.35C619.93,580.03 618.18,582.52 616.9,584.08C614.05,587.66 607.37,586.13 605.99,581.87C605.83,579.75 607.54,578.18 609.42,577.61Z" style="fill-rule:nonzero;"/>
                    <path d="M646.41,578.52C648.38,576.88 650.95,577.98 653.12,578.51C656.07,579.47 659.47,580.81 660.77,583.88C659.8,586.69 657.68,589.11 654.79,589.98C648.72,593.51 641,583.15 646.41,578.52Z" style="fill-rule:nonzero;"/>
                    <path d="M711.94,588.1C711.34,585.34 715,584.61 717.01,584.32C725.19,583.89 732.49,589.76 735.18,597.29C729.93,598.74 725.45,594.92 720.6,593.68C717.33,592.8 712.9,591.88 711.94,588.1Z" style="fill-rule:nonzero;"/>
                    <path d="M655.43,594.35C658.91,593.47 662.42,594.81 665.52,596.34C662.23,598.93 657.8,597.32 655.43,594.35Z" style="fill-rule:nonzero;"/>
                    <path d="M702.59,594.67C705.86,593.44 708.93,595.37 710.59,598.16C708.65,599 706.45,600.05 704.44,598.78C702.72,598.13 703.01,596.1 702.59,594.67Z" style="fill-rule:nonzero;"/>
                    <path d="M578.82,595.94C582.68,595.19 585.78,598.44 587.8,601.3C589.9,604.06 586.88,607.19 584.71,608.81C582.7,610.44 580.41,608.21 579.73,606.31C578.49,603.06 577.9,599.35 578.82,595.94Z" style="fill-rule:nonzero;"/>
                    <path d="M632.21,601C633.74,599.49 635.4,596.89 637.94,597.73C640.3,598.54 643.23,599.37 644.34,601.84C641.78,606.73 635.51,603.24 632.21,601Z" style="fill-rule:nonzero;"/>
                    <path d="M727.71,609.87C727.91,608.37 728.26,606.9 728.7,605.47C730.56,605.96 733.12,607.97 730.95,609.76C730.14,609.78 728.52,609.84 727.71,609.87Z" style="fill-rule:nonzero;"/>
                    <path d="M657.52,610.68C660.66,610.02 663.88,610.21 667.08,610.19C673.56,610.26 680.2,609.74 686.5,611.67C694.78,613.28 703.21,615.04 710.52,619.46C716.01,622.85 721.43,626.46 726.15,630.88C729.26,633.93 732.27,638.42 730.66,642.93C729.99,644.75 727.76,645.05 726.1,645.17C723.44,645.08 721.48,643.12 719.42,641.72C713.72,637.71 707.94,633.81 701.98,630.21C696.6,627.01 690.19,626.82 684.13,626.23C672.34,624.98 660.55,626.97 648.86,628.31C640.36,629.76 631.64,630.59 623.52,633.67C619.23,635.31 614.67,636.08 610.13,636.63C607.58,636.83 604.67,637.28 602.5,635.59C600.62,631.95 601.63,626.44 605.82,624.91C618.07,618.96 631.46,615.56 644.88,613.46C649.14,612.75 653.31,611.61 657.52,610.68Z" style="fill-rule:nonzero;"/>
                    <path d="M564.27,613.08C565.44,611.75 567.16,613.12 568.14,613.97C570.34,616 570.65,619.55 569.31,622.14C568.43,623.86 566.08,625.2 564.34,623.85C561.34,621.25 560.53,615.38 564.27,613.08Z" style="fill-rule:nonzero;"/>
                    <path d="M754.68,613.74C757.23,612.44 760.94,612.87 762.45,615.54C764.34,618.17 763.51,622.97 759.92,623.56C756.94,623.43 753.92,622.24 751.83,620.1C749.98,617.79 752.7,614.92 754.68,613.74Z" style="fill-rule:nonzero;"/>
                    <path d="M734.92,620.07C736.46,619.97 737.96,620.42 739.46,620.79C738.92,622.58 738.64,625.16 736.26,625.29C735.25,623.75 734.28,621.94 734.92,620.07Z" style="fill-rule:nonzero;"/>
                    <path d="M537.17,638.35C533.91,637.9 533.91,634.32 536.03,632.53C536.94,634.33 537.83,636.29 537.17,638.35Z" style="fill-rule:nonzero;"/>
                    <path d="M765.76,636.12C766.38,635.77 767.61,635.08 768.22,634.73C769.19,635.71 770.32,636.63 770.92,637.94C770.85,639.33 769.86,640.42 769.22,641.59C767.78,639.95 766.64,638.1 765.76,636.12Z" style="fill-rule:nonzero;"/>
                    <path d="M536.25,646.25C538.86,645.4 541.67,646.69 543.67,648.35C545.14,651.67 545.1,658.18 540.13,658.26C534.15,658.43 532.28,649.68 536.25,646.25Z" style="fill-rule:nonzero;"/>
                    <path d="M670.21,655.29C671.79,655.04 675.74,654.2 674.61,656.99C673.6,659.72 669.34,658.03 670.21,655.29Z" style="fill-rule:nonzero;"/>
                    <path d="M252.18,668.58C253.57,667.6 255.23,667.64 256.84,667.84C255.64,669.55 253.87,669.4 252.18,668.58Z" style="fill-rule:nonzero;"/>
                    <path d="M209.99,723.78C214.15,721.02 219.29,723.63 222.28,726.91C220.1,730.45 216.72,732.96 214.21,736.21C212.78,739.17 211.8,743.5 207.89,743.95C203.65,743.94 201.44,738.7 202.85,735.14C204.44,730.96 206.65,726.82 209.99,723.78Z" style="fill-rule:nonzero;"/>
                    <path d="M236.89,736.06C240.7,735.12 247.76,736.96 246.45,742.1C242.5,744.02 236.33,740.63 236.89,736.06Z" style="fill-rule:nonzero;"/>
                    <path d="M229.73,750.74C233.84,748.76 239.55,753.33 238.55,757.94C237.99,760.84 236.82,765.38 233.08,765.21C229.48,764.28 228.82,760.05 228.47,756.93C228.4,754.87 228.05,752.27 229.73,750.74Z" style="fill-rule:nonzero;"/>
                    <path d="M213.93,757.74C218.1,762.4 220.24,768.54 221.17,774.65C218.68,773.87 215.13,773.83 214.1,770.92C212.92,766.63 213.3,762.08 213.93,757.74Z" style="fill-rule:nonzero;"/>
                    <path d="M188.35,760.18C190.45,758.72 194.4,759.16 195.01,762.01C195.71,766 190.12,769.16 187.3,765.96C184.61,764.61 186.78,761.5 188.35,760.18Z" style="fill-rule:nonzero;"/>
                    <path d="M281.68,770.08C284.04,769.97 286.89,771.02 286.92,773.8C284.31,776.11 281.17,772.97 281.68,770.08Z" style="fill-rule:nonzero;"/>
                    <path d="M223.23,775.93C223.55,772.52 226.69,775.24 228.45,776.01C228.31,776.59 228.03,777.74 227.89,778.32C226.1,778.07 224.11,777.71 223.23,775.93Z" style="fill-rule:nonzero;"/>
                    <path d="M882.64,775.65C883.76,776.76 886.26,777.98 884.91,779.93C884.24,781.31 882.5,781.11 881.26,781.43C881.7,779.5 882.17,777.57 882.64,775.65Z" style="fill-rule:nonzero;"/>
                    <path d="M233.11,784.71C236.08,783.3 238.96,786.54 240.01,789.07C238.19,793.98 228.98,788.69 233.11,784.71Z" style="fill-rule:nonzero;"/>
                    <path d="M932.43,793.45C936.26,791.42 942.6,792.34 944.36,796.99C943.42,799.06 940.93,799.16 938.99,799.36C936.15,799.42 932.82,799.34 930.85,796.98C931.1,795.7 931.55,794.43 932.43,793.45Z" style="fill-rule:nonzero;"/>
                    <path d="M234.07,798.07C235.87,794.21 242.4,796 242.54,800.1C242.3,803.72 241.59,808.59 237.21,809.25C235.27,805.98 232.15,801.97 234.07,798.07Z" style="fill-rule:nonzero;"/>
                    <path d="M315.29,805.47C316.99,804.18 319.47,806.08 319.38,808.07C320.39,814.25 323.16,820.09 323.36,826.39C320.67,826.35 318.7,824.3 318.2,821.78C316.96,816.55 314.62,811.48 314.5,806.05L315.29,805.47Z" style="fill-rule:nonzero;"/>
                    <path d="M937.03,807.07C938.27,805.46 940.6,807.57 939.4,809.08C938.25,810.57 935.76,808.46 937.03,807.07Z" style="fill-rule:nonzero;"/>
                    <path d="M906.44,812.57C910.43,811.19 914.89,811.66 918.85,812.99C920.67,813.72 922.91,814.67 923.28,816.86C920.55,820.38 916.03,821.48 911.89,822.25C909.42,823.34 906.79,824.08 904.41,825.34C902.61,827.24 901.7,829.89 899.54,831.47C897.59,832.85 894.57,832.75 893.05,830.79C892.23,828.47 892.37,825.71 893.62,823.57C895.74,820.8 899.38,820.02 902.07,817.96C903.59,816.23 904.07,813.44 906.44,812.57Z" style="fill-rule:nonzero;"/>
                    <path d="M758.4,821.99C758.85,818.94 758.23,814.12 762.11,813.24C766.07,816.02 768.49,820.63 769.91,825.17C770.86,827.81 769.37,830.33 768.7,832.84C771.08,838.54 771.64,844.72 772.06,850.83C763.98,860.22 752.06,864.78 740.74,868.93C727.58,873.75 713.62,875.51 700.07,878.85C689.84,881.01 679.54,883.19 669.05,883.39C651.72,884.21 634.32,883.64 617.05,885.36C612.43,885.08 610.05,880.48 605.8,879.32C602.53,878.25 599.66,874.51 601.45,871.09C603,867.79 604.85,864.64 606.32,861.3C608.33,860.57 610.5,860.91 612.59,861.06C615.75,864 620.21,864.41 624.22,865.41C629.37,866.45 634.68,868.53 639.96,867.01C642.95,866.21 645.66,863.57 648.95,864.6C650.01,865.91 650.05,867.66 650.49,869.24C663.05,868.96 675.62,868.72 688.16,867.89C691.37,867.48 694.86,867.55 697.71,865.82C698.83,862.54 699.95,858.12 704.03,857.55C707.76,857.36 708.68,861.41 709.02,864.31C714.46,863.67 719.51,861.35 724.69,859.72C735.35,855.83 746.42,851.79 754.82,843.87C758.08,840.75 760.82,837.14 763.5,833.53C760.91,830.18 757.67,826.59 758.4,821.99Z" style="fill-rule:nonzero;"/>
                    <path d="M269.56,821.45C272.11,819.97 275.06,822.27 275.59,824.85C276.47,828.34 276.53,832.01 276.15,835.58C271.94,832.57 267.44,829.47 264.67,825.02C265.39,822.98 267.8,822.34 269.56,821.45Z" style="fill-rule:nonzero;"/>
                    <path d="M611.48,827.66C613.81,826.66 616.71,826.6 618.96,827.9C620.02,830.08 617.44,831.78 616.23,833.28C612.81,836.13 612.03,841.19 607.87,843.27C603.66,843.54 599.11,837.13 602.81,833.78C605.39,831.37 608.33,829.28 611.48,827.66Z" style="fill-rule:nonzero;"/>
                    <path d="M642.66,831.52C644.01,829.7 646.48,830.12 648.44,830.21C648.91,834.89 647.38,839.43 646.08,843.86C644.93,847.21 643.95,850.71 642,853.71C640.67,855.48 637.72,857.04 635.83,855.2C632.69,852.07 632.75,846.66 635.25,843.16C637.82,839.35 639.92,835.22 642.66,831.52Z" style="fill-rule:nonzero;"/>
                    <path d="M590.21,832.26C592.79,830.94 594.49,833.96 595.06,836.03C593.93,839.3 592.14,842.36 590.13,845.17C587.17,848.8 580.47,845.93 580.85,841.31C580.71,836.11 586.3,834.05 590.21,832.26Z" style="fill-rule:nonzero;"/>
                    <path d="M737.23,836.15C739.81,834.71 742.3,837.57 742.49,840.02C742.81,842.61 743.41,846.19 740.92,847.92C738.18,850.83 732.16,847.9 732.56,844.03C732.22,840.73 734.24,837.48 737.23,836.15Z" style="fill-rule:nonzero;"/>
                    <path d="M663.25,848.29C665.36,846.56 669.11,843.42 671.32,846.6C673.43,850.98 673.08,856.13 672.79,860.88C670.49,861.13 667.89,861.68 665.93,860.12C662.45,857.47 661.76,852.15 663.25,848.29Z" style="fill-rule:nonzero;"/>
                    <path d="M297.4,846.29C299.42,845.36 301.84,847.7 302.65,849.51C303.38,853.45 303.39,857.6 302.59,861.54C301.49,863.78 298.42,865.13 296.07,864.04C293.57,861.99 295.12,858.65 295.12,855.98C294.23,854.99 293.19,854.17 292.39,853.14C292.95,850.23 294.95,847.83 297.4,846.29Z" style="fill-rule:nonzero;"/>
                    <path d="M889.46,849.63C892.17,849.04 895.73,848.85 897.27,851.7C899.26,854.31 896.63,857.31 894.17,858.31C890.77,860.35 886.07,857.66 885.24,854.05C884.66,851.52 887.24,849.8 889.46,849.63Z" style="fill-rule:nonzero;"/>
                    <path d="M387.06,849.86C389.17,848.92 391.74,848.95 393.74,850.15C394.81,853.13 394.35,856.36 394.1,859.45C389.24,860.05 383.77,854.47 387.06,849.86Z" style="fill-rule:nonzero;"/>
                    <path d="M275.41,851.76C277.32,851.73 279.22,852.05 281,852.75C280.68,853.25 280.05,854.27 279.73,854.78C278.11,854.03 276.68,852.99 275.41,851.76Z" style="fill-rule:nonzero;"/>
                    <path d="M382.12,873.97C383.36,869.41 383.87,864.7 385.01,860.13C386.44,865.9 390.43,870.39 394.52,874.5C392.2,877.79 389.41,880.78 386.05,883.04C383.94,880.53 380.91,877.57 382.12,873.97Z" style="fill-rule:nonzero;"/>
                    <path d="M745.43,873.04C748.33,870.64 752.47,870.16 755.91,871.59C757.48,871.83 756.8,874.09 755.66,874.55C752.29,876.13 748.45,874.75 745.43,873.04Z" style="fill-rule:nonzero;"/>
                    <path d="M469.18,875.2C476.61,870.47 479.23,887.46 470.91,886.02C465,886.09 464.3,877.35 469.18,875.2Z" style="fill-rule:nonzero;"/>
                    <path d="M843.95,884.64C848.44,880.69 854.55,878.47 860.52,878.65C860.45,882.51 859.32,886.24 858.92,890.07C858.67,893.36 854.85,894.36 852.15,894.77C846.73,895.28 841.06,896.05 835.82,894.21C836.08,892.52 835.91,890.67 836.85,889.18C838.8,887.07 841.77,886.44 843.95,884.64Z" style="fill-rule:nonzero;"/>
                    <path d="M417.2,882.13C421,881.13 425.21,883.87 427.14,887.06C424.05,891.04 416.19,886.68 417.2,882.13Z" style="fill-rule:nonzero;"/>
                    <path d="M674.16,887.87C675.75,887.06 676.87,888.53 678.04,889.4C676.38,890.17 673.63,890.75 674.16,887.87Z" style="fill-rule:nonzero;"/>
                    <path d="M329.1,890.39C330.49,889.47 332.42,891.72 330.93,892.78C329.54,893.65 327.58,891.41 329.1,890.39Z" style="fill-rule:nonzero;"/>
                    <path d="M505.42,898.03C505.74,894.32 510.58,895.04 513.21,895.16C517.95,895.09 521.64,899.59 521.44,904.18C516.33,906.35 511.26,910.2 505.4,909.13C504.84,905.46 504.76,901.69 505.42,898.03Z" style="fill-rule:nonzero;"/>
                    <path d="M864.99,898.65C866.35,898.19 866.86,898.67 866.53,900.09C865.15,900.52 864.64,900.04 864.99,898.65Z" style="fill-rule:nonzero;"/>
                    <path d="M838.83,907.66C838.5,905.96 838.53,904.25 839.07,902.62C840.72,904.26 841.3,906.42 838.83,907.66Z" style="fill-rule:nonzero;"/>
                    <path d="M462.23,905.06C464.81,903.86 468.11,903.72 470.56,905.32C472.97,908.08 474.91,911.4 475.8,914.99C476.35,917.26 473.74,918.29 471.93,918.34C466.7,918.4 461.25,915.69 458.8,910.95C457.76,908.38 460.29,906.23 462.23,905.06Z" style="fill-rule:nonzero;"/>
                    <path d="M588.36,911.55C590.28,910.16 594.54,911.31 594.91,914.04C594.61,919.36 583.93,915.42 588.36,911.55Z" style="fill-rule:nonzero;"/>
                    <path d="M454.45,913.68C455.69,913.07 457.84,913.19 457.78,915.01C456.91,916.09 455.02,917.64 453.78,916.23C452.73,915.6 453.49,913.97 454.45,913.68Z" style="fill-rule:nonzero;"/>
                    <path d="M553.87,914.37C555.48,913.88 556.04,914.45 555.53,916.07C553.89,916.52 553.34,915.95 553.87,914.37Z" style="fill-rule:nonzero;"/>
                    <path d="M678.33,917.5C681.67,915.51 685.15,918.35 687.13,920.94C688.24,922.54 689.79,925.15 687.97,926.82C685.23,928.13 681.98,927.88 679.17,926.96C675.26,925.78 674.3,919.1 678.33,917.5Z" style="fill-rule:nonzero;"/>
                    <path d="M700.13,916.72C702.47,917 703.95,919 705.81,920.24C708.88,922.62 712.8,923.68 715.74,926.25C718.24,928.48 715.68,932.65 712.9,933.22C709.27,933.12 706.52,930.3 704.06,927.94C701.32,925.01 698.02,920.93 700.13,916.72Z" style="fill-rule:nonzero;"/>
                    <path d="M851.39,917.93C853.82,916.98 856.81,915.99 859.16,917.74C861.01,918.79 861.79,921.58 860.07,923.13C856.81,927.1 851.21,921.94 851.39,917.93Z" style="fill-rule:nonzero;"/>
                    <path d="M746.79,924.24C747.7,922.22 748.58,919.65 751.06,919.15C755.19,918.06 760.13,917.78 763.82,920.3C765.75,922.67 762.83,925.06 760.51,925.24C755.98,925.79 750.86,926.97 746.79,924.24Z" style="fill-rule:nonzero;"/>
                    <path d="M795.81,927.75C799.01,924.57 804.19,926.08 806.96,929.08C809.87,932.23 813.07,936.14 812.47,940.73C806.49,940.85 800.3,939.7 794.97,936.96C791.18,934.83 792.78,929.77 795.81,927.75Z" style="fill-rule:nonzero;"/>
                    <path d="M553.8,930.42C557.35,932.78 560.37,935.84 563.07,939.13C559.42,939.14 554.97,938.4 553.18,934.77C552.23,933.4 553.61,931.82 553.8,930.42Z" style="fill-rule:nonzero;"/>
                    <path d="M580.24,931.53C582.58,930.42 586.49,930.36 587.84,932.95C586.86,934.97 585.31,936.88 583.12,937.63C580.22,937.12 577.84,934.09 580.24,931.53Z" style="fill-rule:nonzero;"/>
                    <path d="M759.19,935C760.08,933.23 761.59,931.91 762.92,930.5C763.93,932.35 765.72,934.3 764.8,936.58C763.9,937.43 762.94,938.21 761.92,938.92C760.87,937.7 759.72,936.52 759.19,935Z" style="fill-rule:nonzero;"/>
                    <path d="M592.33,947.71C590.88,944.85 591.52,939.9 595.04,938.99C600.58,939.89 603.02,946.96 601.1,951.8C597.75,952 593.82,951.04 592.33,947.71Z" style="fill-rule:nonzero;"/>
                    <path d="M570.25,950.89C571.78,949.83 573.17,952.51 571.71,953.42C570.16,954.47 568.81,951.78 570.25,950.89Z" style="fill-rule:nonzero;"/>
                    <path d="M746.18,953.03C747.53,951.7 749.82,954.19 748.27,955.34C746.82,956.38 744.51,954.29 746.18,953.03Z" style="fill-rule:nonzero;"/>
                    <path d="M544.06,90.17C547.02,86.67 547.93,81.86 551.21,78.56C553.23,78.71 554.98,80.21 557.05,79.96C559.97,79.54 562.83,78.72 565.79,78.48C565.23,80.3 564.51,82.07 564.19,83.95C564.07,86.76 566.12,89.89 569.15,89.92C573.94,89.5 578.65,87.85 583.5,88.22C591.16,90.1 599.14,89.24 606.89,90.49C610.66,91.07 608.83,96.51 611.99,98.02C613.93,99.65 616.4,98.4 618.61,98.35C621.81,100.22 623.94,104.25 628.03,104.3C634.26,105.13 637.52,98.67 642.65,96.46C645.76,94.36 649.53,95.35 653.02,95.13C666.44,96.04 679.62,99.25 692.42,103.33C701.72,106.02 710.46,110.38 718.83,115.18C725.97,119.16 731.09,125.87 738.37,129.64C745.02,133.78 752.96,135.21 759.53,139.5C764.91,142.96 769.28,147.67 773.9,152.02C784.23,162.42 795.53,171.77 806.55,181.41C810.78,185.12 815.57,188.56 818.23,193.68C823.17,204.14 827.75,214.76 832.84,225.16C836.79,233.54 842.23,241.08 846.9,249.06C854.5,260.19 862.33,271.53 873.18,279.78C877.82,283.29 883.02,287.03 889.14,286.8C891.58,286.61 894.44,286.08 895.89,283.86C896.64,279.72 892.56,277.15 889.52,275.33C882.24,269.71 875.69,263.22 869.05,256.89C863.37,251.12 857.69,245.21 853.6,238.17C849.99,231.82 845.22,226.07 842.87,219.07C839.58,213.04 834.08,207.2 835.43,199.75C839.98,207.05 847.21,211.98 854.01,217.01C857.59,219.5 861.23,222.13 865.56,223.11C867.05,228.81 870.09,233.91 872.9,239.04C881.25,254.72 895.69,265.88 905.58,280.45C904.98,283.61 904.34,286.93 906.23,289.84C908.12,294.5 914.25,294.08 916.88,298.06C923.18,306.31 929.29,314.87 933.68,324.32C931.69,325.77 929.05,326.69 928.01,329.1C926.38,332.54 927.13,336.66 929.3,339.7C931.3,342.35 930.58,346.47 933.61,348.42C936.42,350.28 939.96,349.95 943.17,350.37C943.29,356.35 945.56,361.97 946.12,367.89C947.67,381.21 948.85,394.6 951.24,407.81C954.83,419.28 956.75,431.17 960.2,442.68C961.21,446.03 962.39,449.43 962.2,453C961.86,457.49 964.3,461.49 964.8,465.87C966.22,475.9 966.3,486.05 967.03,496.14C954.09,493.82 942.32,487.81 929.91,483.81C920.85,480.95 911.41,479.47 901.95,478.87C900.04,478.84 898.19,479.4 896.33,479.69C890.98,470.69 884.13,462.73 877.01,455.1C870.89,448.6 863.3,443.53 854.93,440.41C847.22,437.57 839.23,434.94 830.94,434.86C803.61,434.21 776.11,434.25 749.06,438.61C742.51,440.52 736.56,444.1 731,447.98C727.29,450.24 725.03,453.93 722.83,457.53C716.49,445.87 703.56,439.93 691.24,436.75C688.22,435.65 684.93,435.45 681.87,436.49C671.75,439.15 661.86,442.57 651.86,445.61C648.95,437.72 645.15,429.88 638.75,424.22C624.17,411.03 605.49,403.64 586.99,397.82C573.92,394.15 560.84,390.43 547.53,387.76C537.97,387.08 528.62,384.7 519.03,384.37C509.69,384.05 500.34,383.88 491,384.32C485.87,384.39 481.09,386.47 476.11,387.42C465.16,390.4 454.28,396.12 447.69,405.64C445.34,408.72 444.69,414.19 440.13,414.75C433.65,414.78 427.34,413.1 420.99,412.09C406.04,410.69 390.97,410.88 376.05,409.14C363.72,410.35 351.24,410.28 338.88,409.54C327.68,407.36 316.23,407.31 304.87,406.98C302.73,406.95 300.62,406.57 298.54,406.13C299.21,401.59 302.1,397.67 302.19,393.01C298.74,392.43 295.09,392.04 292.26,389.78C290,387.9 287.11,387.32 284.3,386.83C283.64,384.3 282.94,381.38 280.14,380.45C280.15,384.31 281.98,388.17 280.8,392.01C279.42,396.56 277.71,401 276.17,405.5C266.1,406.88 255.81,406.97 245.69,406.16C246.58,402.43 248.12,398.86 248.39,395.01C249.16,390.49 248.71,385.4 251.61,381.55C255.42,376.08 257.73,369.77 260.64,363.82C262.98,358.41 266.03,353.13 266.8,347.2C267.3,343.73 264.77,340.5 265.8,337.06C267.74,329.51 271.01,322.38 273.1,314.87C273.92,311.5 275.45,308.36 276.37,305.02C277.61,300.82 280.71,297.6 283.01,293.97C285.64,289.89 287.7,285.46 290.55,281.51C296.7,272.97 302.14,263.94 308.31,255.41C309.64,253.38 311.56,251.88 313.68,250.76C315.24,244.21 320.79,239.84 325.54,235.55C333.11,229.47 339.99,222.3 348.79,217.95C351.95,216.52 353.36,212.97 356.47,211.49C362.03,208.91 367.32,205.8 372.45,202.45C379.98,196.73 387.06,190.41 393.79,183.76C397.93,180.04 399.84,174.62 403.33,170.36C406.65,165.31 411.6,159.79 418.25,160.53C418.37,163.29 417.75,166 416.47,168.44C407.86,186.36 398.87,204.1 389.84,221.8C387.31,228.87 386.42,236.61 386.66,244.08C390.16,245.37 392.57,241.72 394.58,239.49C402.51,228.63 409.74,217.28 416.88,205.9C420.06,201.16 424,197 427.46,192.47C438.86,177.78 449.87,162.77 460.54,147.54C465.48,140.38 470.21,133.08 474.52,125.53C478.28,118.64 483.34,112.37 489.54,107.54C496.02,104.16 503.64,104.31 510.6,102.48C512.8,101.39 514.06,99.13 515.97,97.67C519.02,98.6 520.52,102.39 523.91,102.63C526.96,102.18 530.02,100.09 530.95,97.05C531.85,93.21 528.21,90.84 526.26,88.13C532.22,87.6 538.88,86.35 544.06,90.17M635.15,113.21C635.36,114.84 638.29,114.89 638.43,113.19C638.17,111.68 635.19,111.53 635.15,113.21M637.41,118.3C635.28,119.57 633.26,121.68 633.34,124.33C636.7,125.28 640.4,124.82 643.55,123.35C641.82,121.36 640.07,119.02 637.41,118.3M662.61,120.46C664.39,122.79 666.69,124.74 669.57,125.55C667.95,123.05 665.5,121.22 662.61,120.46M648.73,124.53C648.57,125.8 648.45,127.07 648.35,128.34C651.48,127.37 655.14,127.46 657.67,125.1C654.81,123.94 651.71,124.1 648.73,124.53M471.13,149.61C474.68,151.19 477.63,148.12 479.63,145.58C476.29,145.34 472.87,146.63 471.13,149.61M634.29,167.42C637.16,168.92 641.12,170.64 643.93,168.06C642.37,164.16 636.28,163.6 634.29,167.42M508.74,232.54C506.34,235.08 510.71,236.72 512.64,237.45C513.11,236.79 514.07,235.48 514.55,234.83C512.92,233.78 510.72,230.36 508.74,232.54M437.42,241.4C436.09,242.24 434.24,243.71 435.3,245.45C438.84,246.46 442.63,246.06 446.22,245.51C446.47,243.73 447.15,241.83 446.09,240.18C443.31,238.44 439.97,239.97 437.42,241.4M516.11,246.06C514.72,246.32 513.24,247.53 513.8,249.14C514.88,252.05 518.92,253.39 521.48,251.52C523.12,250.58 524.24,247.9 522.23,246.73C520.4,245.71 518.12,245.6 516.11,246.06M558.95,279.25C560.47,277.15 561.49,274.7 561.71,272.11C557.75,270.04 556.83,277.02 558.95,279.25M474.86,276.24C463.02,277.37 451.05,277.69 439.38,280.09C435.58,280.76 431.65,280.77 427.95,281.91C423.21,283.95 420.07,289.87 422,294.86C424.6,301.75 433.01,306.11 440.08,303.77C453.16,296.86 468.33,295.07 482.94,295.19C493.41,295.41 504.03,296.37 513.99,299.82C517.03,300.81 520.37,300.46 523.31,301.81C528.3,303.92 533.6,305.17 538.67,307.1C544.97,308.35 550.78,311.32 557.16,312.29C561.87,313.44 567.11,313.1 571.28,315.89C577,319.35 581.81,324.53 588.41,326.37C594.7,328.14 601.48,329.23 607.95,327.8C614.76,324.68 615.26,313.86 609.56,309.4C606.96,307.56 605.72,304.58 603.82,302.16C598.71,299.52 592.38,300.66 587.34,297.81C584.37,295.05 584.91,290.01 581.39,287.56C577.11,284.56 571.21,283.55 566.22,285.18C563.89,285.65 564.1,289.18 566.31,289.69C570.72,290.75 576.1,291.49 578.57,295.85C569.51,295.02 560.68,292.7 551.87,290.54C538.09,287.86 524.4,284.32 511.53,278.66C499.93,273.79 487.05,275.01 474.86,276.24M778.2,299.53C779.59,298.92 780.78,297.98 781.74,296.79C779.6,296.38 778.06,297.06 778.2,299.53M365.12,298.29C368.13,304.66 373.67,309.89 380.51,311.87C381.86,309.13 382.83,306.14 382.65,303.05C382.66,300.84 382.22,297.81 379.58,297.39C374.84,296.38 369.55,295.95 365.12,298.29M646.65,304.67C644.35,313.57 641.66,323.06 634.96,329.85C632.86,331.57 629.54,332.6 630.4,336.02C629.66,339.56 632.86,341.35 635.99,340.84C642.81,341.59 647.25,335.68 651.14,331.07C656.31,324.93 657.56,315.83 654.34,308.51C653.09,305.78 649.59,303.06 646.65,304.67M827.5,333.68C821.83,335.51 815.79,335.41 810.08,337.03C806.08,338.11 802.06,339.12 798,339.9C793.45,340.6 789.89,343.73 786.25,346.28C783.77,348.08 781.75,351.67 783.61,354.6C785.88,358.09 790.66,357.34 794.17,356.71C807.3,354 820.73,353.65 834.08,352.97C854.51,352.21 875.05,350.36 895.44,352.79C901.14,353.38 907.11,353.79 912.17,356.79C916.01,358.58 920.06,362.06 924.54,360.28C929.04,358.46 929.54,352.25 927.37,348.48C924.6,343.85 919.47,340.87 914.17,340.22C903.74,338.73 892.97,338.97 882.89,335.58C870.71,333.66 858.37,332.51 846.03,332.77C839.85,332.9 833.59,332.45 827.5,333.68M259.54,374.49C258.88,376.22 259.36,378.06 259.72,379.8C261.92,378.92 263.02,376.88 262.57,374.53C261.56,374.09 260.55,374.08 259.54,374.49M760.91,402.81C761.87,403.86 764.01,402.15 763.22,400.96C762.11,399.82 760.02,401.47 760.91,402.81Z" style="fill:white;fill-rule:nonzero;"/>
                    <path d="M460.55,410.46C469.32,401.67 481.68,397.38 493.89,396.54C501.41,395.99 508.97,395.87 516.5,396.31C517.11,398.66 517.92,401.84 520.79,402.21C526.26,401.85 531.55,399.82 537.1,400.39C549.65,401.16 561.76,404.91 573.94,407.79C581.99,409.63 589.89,412.13 597.43,415.54C602.3,417.93 607.88,418.76 612.24,422.17C610.07,424.07 606.64,427.02 608.58,430.18C611.83,433.57 616.44,435.46 621.02,436.25C625.38,437.19 629.19,439.66 632.72,442.28C631.62,446.1 629.01,450.17 630.84,454.19C631.79,457.1 634.24,459.17 635.44,461.92C635.6,464.78 633.83,467.2 632.49,469.57C629.62,474.14 626.51,478.95 621.67,481.63C619.03,483.2 615.89,483.26 612.93,483.51C608.54,483.86 604.4,485.49 600.36,487.13C602.11,488.62 604.1,489.8 606.13,490.9C598,493.93 589.35,495.07 580.8,496.2C565.64,498.17 550.26,497.98 535.09,496.28C519.29,494.84 504.72,487.3 492.33,477.69C484.84,471.16 477.17,464.84 469.84,458.13C461.38,450.61 456.45,439.41 456.24,428.13C456.03,422.07 456.13,415.16 460.55,410.46Z" style="fill:white;fill-rule:nonzero;"/>
                    <path d="M229.69,419.71C237.79,417.86 246.34,419.03 254.55,419.75C253.02,423.46 251.58,427.34 248.76,430.32C248.09,429.84 246.75,428.88 246.07,428.4C244.19,428.54 241.96,427.96 240.45,429.42C237.07,432.61 235.69,437.26 234.42,441.6C233.38,445.6 231.8,449.43 230.84,453.46C233.54,453.9 236.28,454.1 239.01,453.9C247.23,453.45 255.47,453.21 263.7,453.75C264.19,445 262.05,436.38 259.88,427.98C259.12,425.89 260.13,423.82 260.63,421.81C259.54,420.85 258.45,419.88 257.39,418.9C270.26,418.41 283.12,419.68 296,419.09C306,419.16 315.96,420.28 325.9,421.29C350.47,424.64 375.43,421.79 399.98,425.1C411.18,425.28 422.32,426.49 433.43,427.81C435.87,428.15 438.4,428.33 440.69,429.34C443.82,433.35 443.77,438.7 444.78,443.46C446.68,447.93 448.33,452.51 449.93,457.1C456.16,466.96 465.85,473.82 474.5,481.4C481.3,487.04 487.91,493.04 495.67,497.38C506.69,503.63 518.77,508.07 531.26,510.24C541.53,511.2 551.87,510.81 562.17,510.75C573.55,510.65 584.72,508.34 595.85,506.25C603.64,504.61 611.59,503.31 618.92,500.07C632.26,495.64 642.21,484.24 648.18,471.89C650.48,467.52 650.28,460.85 655.7,458.92C663.11,455.73 670.92,453.41 678.88,452.13C685.41,449.65 692.64,450.92 699.08,453.04C701.55,453.99 704.66,455.14 705.3,458.05C705.82,459.92 704.77,461.65 704.17,463.36C701.31,470.9 701.73,479.5 705.06,486.82C707.7,492.47 710.55,498.03 713.8,503.36C715.1,504.92 714.63,507.08 713.52,508.61C708.93,515.25 701.82,519.68 697.25,526.33C695.44,528.9 696.12,533.85 699.93,533.96C705.4,534.16 710.6,531.71 715.31,529.16C722.86,524.97 725.24,515.96 727.6,508.29C735.89,512.57 743.13,518.73 751.87,522.2C755.9,524.14 760.44,524.26 764.66,525.57C784.12,532.17 804.49,536.37 825.05,537.35C831.79,537.86 838.34,535.87 844.99,535.14C856.61,533.61 867.3,528.48 877.8,523.59C885,518.7 891.8,512.5 895.28,504.35C896.96,500.43 897.99,496.29 899.15,492.2C906.95,492.32 914.51,494.39 922.08,496.07C928.26,497.42 933.84,500.48 939.83,502.43C949.06,505.61 958.54,508.29 967.23,512.83C969.02,513.97 971.85,515.26 971.37,517.86C970.86,522.38 969.33,526.91 970.28,531.49C971.61,538.23 972.59,545.05 972.96,551.91C973.27,560.05 976.05,567.8 977.1,575.84C978.83,580.67 979.04,585.83 979.72,590.88C981.51,603.57 980.21,616.47 978.01,629.02C976.2,642 975.7,655.12 973.9,668.1C971.81,680.95 970.77,693.96 970.39,706.97C970.6,714.67 971.64,722.42 970.47,730.11C969.04,739.96 966.87,749.72 964.01,759.26C961.69,765.01 961.3,771.3 958.96,777.05C954.1,793.69 944.68,808.36 937.1,823.8C932.07,833.88 927.04,843.95 921.9,853.98C918.42,861.38 914.69,868.73 909.77,875.3C907.61,871.97 906.39,867.54 902.59,865.69C898.99,863.99 895.84,867.16 893.29,869.27C889.33,872.75 884.24,876.92 885.38,882.85C887.3,885.87 891.69,885.43 894.73,884.76C896.94,884.37 898.89,881.81 901.19,882.75C902.64,884.81 900.8,886.91 899.76,888.66C895.93,894.1 891.81,899.39 887.04,904.04C878.65,911 869.91,917.51 861.39,924.31C856.95,927.61 852.71,931.28 847.8,933.87C844.99,935.32 845.01,931.11 844.22,929.44C843.64,926.03 840.72,922.96 837.11,923.17C831.52,927.98 832.9,936.85 836.71,942.39C831.49,945.51 826.71,949.3 821.35,952.2C811.71,959.1 800.19,963 788.47,964.38C787.79,959.73 788.52,954.77 786.52,950.4C785.36,947.82 782.67,946.38 780.01,945.87C778.06,947.22 776.78,949.51 776.87,951.92C777.02,956.47 779.48,960.44 781.18,964.54C767.34,967.83 753.07,967.7 738.95,967.8C723.29,967.78 707.62,967.84 691.96,967.77C680.26,967.24 668.42,968.13 656.84,966.04C656.42,964.5 655.5,962.85 656.42,961.31C657.6,959.58 659.57,958.61 660.87,956.99C660.96,955.37 660.79,953.77 660.7,952.18C653.17,951.87 645.62,951.38 638.08,951.66C633.98,951.72 629.46,955.36 630.11,959.76C631.8,960.17 633.37,959.24 635.02,959.01C639.26,959.26 643.06,961.53 646.01,964.48C632.16,965.25 618.25,965.02 604.42,963.85C599.3,963.47 594.18,963.14 589.05,963.2C559.37,962.06 530.32,955.39 501.23,949.92C488.73,947.53 476.31,944.74 464.05,941.39C459.23,941.01 454.95,938.65 450.25,937.77C439.81,935.56 429.6,932.44 419.08,930.66C411.15,930.02 403.35,928.42 395.48,927.3C387.01,926.02 379.19,922.39 371.04,919.98C358.86,916.54 347.69,910.4 336.73,904.22C327.27,898.89 318.28,892.77 309.65,886.19C308.32,886.39 306.85,887.45 305.6,886.44C301.05,883.72 297.05,880.21 292.63,877.29C290.07,875.4 287.13,874.05 284.75,871.94C284.63,870.57 284.71,869.23 284.74,867.88C281.23,867.45 277.79,866.38 274.86,864.38C271.44,862.41 268.94,858.93 264.99,857.92C261,856.8 257.85,854.01 254.58,851.6C246.11,845.33 237.1,839.8 229,833.04C225.57,830.17 222.12,827.13 219.88,823.21C215.1,814.42 209.87,805.89 204.79,797.28C203.6,795.94 204.45,794.34 204.81,792.89C203.48,792.88 202.15,792.85 200.82,792.79C189.8,779.04 183.82,762.13 175.16,746.92C171.37,738.08 166.73,729.5 164.55,720.05C163.93,714.63 161.94,709.53 160.22,704.4C167.69,697.39 164.01,685.12 171.3,678.02C168.57,674.62 168.35,670.15 168.06,665.99C167.42,656.32 167.45,646.63 167.2,636.95C167.29,629.96 166.61,622.72 169.13,616.04C170.29,612.04 172.59,608.34 172.67,604.08C173.54,590.34 174.06,576.51 176.39,562.92C177.66,557.88 178.18,552.7 179.01,547.58C179.37,550.73 182.71,549.94 184.99,550.19C190.72,550.27 196.46,550.21 202.16,549.65C206.17,549.36 210.3,546.9 211.8,543.07C211.89,540.1 210.51,537.38 209.29,534.77C205.83,536.08 202.61,538.11 198.96,538.88C194.1,536.3 191.37,531 188.51,526.5C190.14,525.18 192.08,524.21 193.48,522.63C194.15,520.42 194.31,518.1 194.77,515.84C193.79,515.08 192.78,514.38 191.73,513.74C189.2,514.58 186.96,516.11 184.42,516.94C184.38,515.22 184.75,513.61 185.54,512.1C183.77,509.69 181.98,507.11 181.67,504.06C183.92,495.8 178.08,488.41 176.66,480.52C175.86,475.22 174.41,469.32 177.38,464.41C179.83,460.1 182.86,454.88 188.21,454.05C191.67,453.89 195.22,454.4 198.46,455.66C202.31,457.21 203.12,463.14 199.67,465.56C196.87,467.77 194.82,471.12 195.02,474.78C196.14,479.01 200.92,480.36 204.79,480.45C203.11,491.91 198.91,502.77 196.69,514.12C198.94,514.56 201.39,515.55 203.6,514.38C207.34,512.59 210.74,509.95 214.92,509.2C218.99,508.45 220.73,504.06 221.47,500.46C216,497.32 211.46,492.89 206.95,488.54C208.28,485.45 209.16,482.06 211.31,479.4C214.99,475.86 220.83,476.87 224.85,473.92C226.61,472.7 227.55,470.06 226.09,468.26C219.95,458.9 213.93,448.77 203.91,443.05C199.66,440.08 194.1,440.13 189.92,437.06C194.91,434.76 200.29,433.57 205.65,432.56C209.01,430.83 212.98,431.12 216.33,429.36C219.36,427.86 222.59,429.79 225.72,429.8C228.72,427.26 227.64,422.75 229.69,419.71M642.13,517.91C643.86,518.6 645.63,517.82 647.32,517.4C645.92,516.46 644.51,515.48 642.94,514.87C641.26,515.21 641.78,516.74 642.13,517.91M648.38,521.64C647.98,520.87 647.17,519.34 646.77,518.57C646.95,522.39 648.53,527.68 653.04,528.13C658.81,528.54 664.48,526.79 669.95,525.14C673.47,524.6 673.51,519.62 671.67,517.44C667.87,515.52 663.38,513.3 659.06,514.67C655.36,516.77 652.12,519.59 648.38,521.64M430.3,535.5C428.86,536.17 426.5,536.41 426.68,538.46C428.18,540.07 431.36,539.1 431.93,536.99C431.56,536.16 431.02,535.66 430.3,535.5M417.27,547.73C421.01,548.39 424.99,547.97 428.54,549.54C430.17,550.14 431.79,551.11 433.6,550.82C434.88,548.31 434.07,544.45 431.15,543.54C428.48,542.27 425.93,540.77 423.46,539.17C421.31,541.95 418.95,544.62 417.27,547.73M213.13,558.96C214.93,557.3 216.36,555.31 217.33,553.08C214.19,553.29 213.91,556.6 213.13,558.96M609.42,577.61C607.54,578.18 605.83,579.75 605.99,581.87C607.37,586.13 614.05,587.66 616.9,584.08C618.18,582.52 619.93,580.03 617.86,578.35C615.55,576.38 612.11,576.77 609.42,577.61M646.41,578.52C641,583.15 648.72,593.51 654.79,589.98C657.68,589.11 659.8,586.69 660.77,583.88C659.47,580.81 656.07,579.47 653.12,578.51C650.95,577.98 648.38,576.88 646.41,578.52M711.94,588.1C712.9,591.88 717.33,592.8 720.6,593.68C725.45,594.92 729.93,598.74 735.18,597.29C732.49,589.76 725.19,583.89 717.01,584.32C715,584.61 711.34,585.34 711.94,588.1M655.43,594.35C657.8,597.32 662.23,598.93 665.52,596.34C662.42,594.81 658.91,593.47 655.43,594.35M702.59,594.67C703.01,596.1 702.72,598.13 704.44,598.78C706.45,600.05 708.65,599 710.59,598.16C708.93,595.37 705.86,593.44 702.59,594.67M578.82,595.94C577.9,599.35 578.49,603.06 579.73,606.31C580.41,608.21 582.7,610.44 584.71,608.81C586.88,607.19 589.9,604.06 587.8,601.3C585.78,598.44 582.68,595.19 578.82,595.94M632.21,601C635.51,603.24 641.78,606.73 644.34,601.84C643.23,599.37 640.3,598.54 637.94,597.73C635.4,596.89 633.74,599.49 632.21,601M727.71,609.87C728.52,609.84 730.14,609.78 730.95,609.76C733.12,607.97 730.56,605.96 728.7,605.47C728.26,606.9 727.91,608.37 727.71,609.87M657.52,610.68C653.31,611.61 649.14,612.75 644.88,613.46C631.46,615.56 618.07,618.96 605.82,624.91C601.63,626.44 600.62,631.95 602.5,635.59C604.67,637.28 607.58,636.83 610.13,636.63C614.67,636.08 619.23,635.31 623.52,633.67C631.64,630.59 640.36,629.76 648.86,628.31C660.55,626.97 672.34,624.98 684.13,626.23C690.19,626.82 696.6,627.01 701.98,630.21C707.94,633.81 713.72,637.71 719.42,641.72C721.48,643.12 723.44,645.08 726.1,645.17C727.76,645.05 729.99,644.75 730.66,642.93C732.27,638.42 729.26,633.93 726.15,630.88C721.43,626.46 716.01,622.85 710.52,619.46C703.21,615.04 694.78,613.28 686.5,611.67C680.2,609.74 673.56,610.26 667.08,610.19C663.88,610.21 660.66,610.02 657.52,610.68M564.27,613.08C560.53,615.38 561.34,621.25 564.34,623.85C566.08,625.2 568.43,623.86 569.31,622.14C570.65,619.55 570.34,616 568.14,613.97C567.16,613.12 565.44,611.75 564.27,613.08M754.68,613.74C752.7,614.92 749.98,617.79 751.83,620.1C753.92,622.24 756.94,623.43 759.92,623.56C763.51,622.97 764.34,618.17 762.45,615.54C760.94,612.87 757.23,612.44 754.68,613.74M734.92,620.07C734.28,621.94 735.25,623.75 736.26,625.29C738.64,625.16 738.92,622.58 739.46,620.79C737.96,620.42 736.46,619.97 734.92,620.07M537.17,638.35C537.83,636.29 536.94,634.33 536.03,632.53C533.91,634.32 533.91,637.9 537.17,638.35M765.76,636.12C766.64,638.1 767.78,639.95 769.22,641.59C769.86,640.42 770.85,639.33 770.92,637.94C770.32,636.63 769.19,635.71 768.22,634.73C767.61,635.08 766.38,635.77 765.76,636.12M536.25,646.25C532.28,649.68 534.15,658.43 540.13,658.26C545.1,658.18 545.14,651.67 543.67,648.35C541.67,646.69 538.86,645.4 536.25,646.25M670.21,655.29C669.34,658.03 673.6,659.72 674.61,656.99C675.74,654.2 671.79,655.04 670.21,655.29M252.18,668.58C253.87,669.4 255.64,669.55 256.84,667.84C255.23,667.64 253.57,667.6 252.18,668.58M209.99,723.78C206.65,726.82 204.44,730.96 202.85,735.14C201.44,738.7 203.65,743.94 207.89,743.95C211.8,743.5 212.78,739.17 214.21,736.21C216.72,732.96 220.1,730.45 222.28,726.91C219.29,723.63 214.15,721.02 209.99,723.78M236.89,736.06C236.33,740.63 242.5,744.02 246.45,742.1C247.76,736.96 240.7,735.12 236.89,736.06M229.73,750.74C228.05,752.27 228.4,754.87 228.47,756.93C228.82,760.05 229.48,764.28 233.08,765.21C236.82,765.38 237.99,760.84 238.55,757.94C239.55,753.33 233.84,748.76 229.73,750.74M213.93,757.74C213.3,762.08 212.92,766.63 214.1,770.92C215.13,773.83 218.68,773.87 221.17,774.65C220.24,768.54 218.1,762.4 213.93,757.74M188.35,760.18C186.78,761.5 184.61,764.61 187.3,765.96C190.12,769.16 195.71,766 195.01,762.01C194.4,759.16 190.45,758.72 188.35,760.18M281.68,770.08C281.17,772.97 284.31,776.11 286.92,773.8C286.89,771.02 284.04,769.97 281.68,770.08M223.23,775.93C224.11,777.71 226.1,778.07 227.89,778.32C228.03,777.74 228.31,776.59 228.45,776.01C226.69,775.24 223.55,772.52 223.23,775.93M882.64,775.65C882.17,777.57 881.7,779.5 881.26,781.43C882.5,781.11 884.24,781.31 884.91,779.93C886.26,777.98 883.76,776.76 882.64,775.65M233.11,784.71C228.98,788.69 238.19,793.98 240.01,789.07C238.96,786.54 236.08,783.3 233.11,784.71M932.43,793.45C931.55,794.43 931.1,795.7 930.85,796.98C932.82,799.34 936.15,799.42 938.99,799.36C940.93,799.16 943.42,799.06 944.36,796.99C942.6,792.34 936.26,791.42 932.43,793.45M234.07,798.07C232.15,801.97 235.27,805.98 237.21,809.25C241.59,808.59 242.3,803.72 242.54,800.1C242.4,796 235.87,794.21 234.07,798.07M315.29,805.47L314.5,806.05C314.62,811.48 316.96,816.55 318.2,821.78C318.7,824.3 320.67,826.35 323.36,826.39C323.16,820.09 320.39,814.25 319.38,808.07C319.47,806.08 316.99,804.18 315.29,805.47M937.03,807.07C935.76,808.46 938.25,810.57 939.4,809.08C940.6,807.57 938.27,805.46 937.03,807.07M906.44,812.57C904.07,813.44 903.59,816.23 902.07,817.96C899.38,820.02 895.74,820.8 893.62,823.57C892.37,825.71 892.23,828.47 893.05,830.79C894.57,832.75 897.59,832.85 899.54,831.47C901.7,829.89 902.61,827.24 904.41,825.34C906.79,824.08 909.42,823.34 911.89,822.25C916.03,821.48 920.55,820.38 923.28,816.86C922.91,814.67 920.67,813.72 918.85,812.99C914.89,811.66 910.43,811.19 906.44,812.57M758.4,821.99C757.67,826.59 760.91,830.18 763.5,833.53C760.82,837.14 758.08,840.75 754.82,843.87C746.42,851.79 735.35,855.83 724.69,859.72C719.51,861.35 714.46,863.67 709.02,864.31C708.68,861.41 707.76,857.36 704.03,857.55C699.95,858.12 698.83,862.54 697.71,865.82C694.86,867.55 691.37,867.48 688.16,867.89C675.62,868.72 663.05,868.96 650.49,869.24C650.05,867.66 650.01,865.91 648.95,864.6C645.66,863.57 642.95,866.21 639.96,867.01C634.68,868.53 629.37,866.45 624.22,865.41C620.21,864.41 615.75,864 612.59,861.06C610.5,860.91 608.33,860.57 606.32,861.3C604.85,864.64 603,867.79 601.45,871.09C599.66,874.51 602.53,878.25 605.8,879.32C610.05,880.48 612.43,885.08 617.05,885.36C634.32,883.64 651.72,884.21 669.05,883.39C679.54,883.19 689.84,881.01 700.07,878.85C713.62,875.51 727.58,873.75 740.74,868.93C752.06,864.78 763.98,860.22 772.06,850.83C771.64,844.72 771.08,838.54 768.7,832.84C769.37,830.33 770.86,827.81 769.91,825.17C768.49,820.63 766.07,816.02 762.11,813.24C758.23,814.12 758.85,818.94 758.4,821.99M269.56,821.45C267.8,822.34 265.39,822.98 264.67,825.02C267.44,829.47 271.94,832.57 276.15,835.58C276.53,832.01 276.47,828.34 275.59,824.85C275.06,822.27 272.11,819.97 269.56,821.45M611.48,827.66C608.33,829.28 605.39,831.37 602.81,833.78C599.11,837.13 603.66,843.54 607.87,843.27C612.03,841.19 612.81,836.13 616.23,833.28C617.44,831.78 620.02,830.08 618.96,827.9C616.71,826.6 613.81,826.66 611.48,827.66M642.66,831.52C639.92,835.22 637.82,839.35 635.25,843.16C632.75,846.66 632.69,852.07 635.83,855.2C637.72,857.04 640.67,855.48 642,853.71C643.95,850.71 644.93,847.21 646.08,843.86C647.38,839.43 648.91,834.89 648.44,830.21C646.48,830.12 644.01,829.7 642.66,831.52M590.21,832.26C586.3,834.05 580.71,836.11 580.85,841.31C580.47,845.93 587.17,848.8 590.13,845.17C592.14,842.36 593.93,839.3 595.06,836.03C594.49,833.96 592.79,830.94 590.21,832.26M737.23,836.15C734.24,837.48 732.22,840.73 732.56,844.03C732.16,847.9 738.18,850.83 740.92,847.92C743.41,846.19 742.81,842.61 742.49,840.02C742.3,837.57 739.81,834.71 737.23,836.15M663.25,848.29C661.76,852.15 662.45,857.47 665.93,860.12C667.89,861.68 670.49,861.13 672.79,860.88C673.08,856.13 673.43,850.98 671.32,846.6C669.11,843.42 665.36,846.56 663.25,848.29M297.4,846.29C294.95,847.83 292.95,850.23 292.39,853.14C293.19,854.17 294.23,854.99 295.12,855.98C295.12,858.65 293.57,861.99 296.07,864.04C298.42,865.13 301.49,863.78 302.59,861.54C303.39,857.6 303.38,853.45 302.65,849.51C301.84,847.7 299.42,845.36 297.4,846.29M889.46,849.63C887.24,849.8 884.66,851.52 885.24,854.05C886.07,857.66 890.77,860.35 894.17,858.31C896.63,857.31 899.26,854.31 897.27,851.7C895.73,848.85 892.17,849.04 889.46,849.63M387.06,849.86C383.77,854.47 389.24,860.05 394.1,859.45C394.35,856.36 394.81,853.13 393.74,850.15C391.74,848.95 389.17,848.92 387.06,849.86M275.41,851.76C276.68,852.99 278.11,854.03 279.73,854.78C280.05,854.27 280.68,853.25 281,852.75C279.22,852.05 277.32,851.73 275.41,851.76M382.12,873.97C380.91,877.57 383.94,880.53 386.05,883.04C389.41,880.78 392.2,877.79 394.52,874.5C390.43,870.39 386.44,865.9 385.01,860.13C383.87,864.7 383.36,869.41 382.12,873.97M745.43,873.04C748.45,874.75 752.29,876.13 755.66,874.55C756.8,874.09 757.48,871.83 755.91,871.59C752.47,870.16 748.33,870.64 745.43,873.04M469.18,875.2C464.3,877.35 465,886.09 470.91,886.02C479.23,887.46 476.61,870.47 469.18,875.2M843.95,884.64C841.77,886.44 838.8,887.07 836.85,889.18C835.91,890.67 836.08,892.52 835.82,894.21C841.06,896.05 846.73,895.28 852.15,894.77C854.85,894.36 858.67,893.36 858.92,890.07C859.32,886.24 860.45,882.51 860.52,878.65C854.55,878.47 848.44,880.69 843.95,884.64M417.2,882.13C416.19,886.68 424.05,891.04 427.14,887.06C425.21,883.87 421,881.13 417.2,882.13M674.16,887.87C673.63,890.75 676.38,890.17 678.04,889.4C676.87,888.53 675.75,887.06 674.16,887.87M329.1,890.39C327.58,891.41 329.54,893.65 330.93,892.78C332.42,891.72 330.49,889.47 329.1,890.39M505.42,898.03C504.76,901.69 504.84,905.46 505.4,909.13C511.26,910.2 516.33,906.35 521.44,904.18C521.64,899.59 517.95,895.09 513.21,895.16C510.58,895.04 505.74,894.32 505.42,898.03M864.99,898.65C864.64,900.04 865.15,900.52 866.53,900.09C866.86,898.67 866.35,898.19 864.99,898.65M838.83,907.66C841.3,906.42 840.72,904.26 839.07,902.62C838.53,904.25 838.5,905.96 838.83,907.66M462.23,905.06C460.29,906.23 457.76,908.38 458.8,910.95C461.25,915.69 466.7,918.4 471.93,918.34C473.74,918.29 476.35,917.26 475.8,914.99C474.91,911.4 472.97,908.08 470.56,905.32C468.11,903.72 464.81,903.86 462.23,905.06M588.36,911.55C583.93,915.42 594.61,919.36 594.91,914.04C594.54,911.31 590.28,910.16 588.36,911.55M454.45,913.68C453.49,913.97 452.73,915.6 453.78,916.23C455.02,917.64 456.91,916.09 457.78,915.01C457.84,913.19 455.69,913.07 454.45,913.68M553.87,914.37C553.34,915.95 553.89,916.52 555.53,916.07C556.04,914.45 555.48,913.88 553.87,914.37M678.33,917.5C674.3,919.1 675.26,925.78 679.17,926.96C681.98,927.88 685.23,928.13 687.97,926.82C689.79,925.15 688.24,922.54 687.13,920.94C685.15,918.35 681.67,915.51 678.33,917.5M700.13,916.72C698.02,920.93 701.32,925.01 704.06,927.94C706.52,930.3 709.27,933.12 712.9,933.22C715.68,932.65 718.24,928.48 715.74,926.25C712.8,923.68 708.88,922.62 705.81,920.24C703.95,919 702.47,917 700.13,916.72M851.39,917.93C851.21,921.94 856.81,927.1 860.07,923.13C861.79,921.58 861.01,918.79 859.16,917.74C856.81,915.99 853.82,916.98 851.39,917.93M746.79,924.24C750.86,926.97 755.98,925.79 760.51,925.24C762.83,925.06 765.75,922.67 763.82,920.3C760.13,917.78 755.19,918.06 751.06,919.15C748.58,919.65 747.7,922.22 746.79,924.24M795.81,927.75C792.78,929.77 791.18,934.83 794.97,936.96C800.3,939.7 806.49,940.85 812.47,940.73C813.07,936.14 809.87,932.23 806.96,929.08C804.19,926.08 799.01,924.57 795.81,927.75M553.8,930.42C553.61,931.82 552.23,933.4 553.18,934.77C554.97,938.4 559.42,939.14 563.07,939.13C560.37,935.84 557.35,932.78 553.8,930.42M580.24,931.53C577.84,934.09 580.22,937.12 583.12,937.63C585.31,936.88 586.86,934.97 587.84,932.95C586.49,930.36 582.58,930.42 580.24,931.53M759.19,935C759.72,936.52 760.87,937.7 761.92,938.92C762.94,938.21 763.9,937.43 764.8,936.58C765.72,934.3 763.93,932.35 762.92,930.5C761.59,931.91 760.08,933.23 759.19,935M592.33,947.71C593.82,951.04 597.75,952 601.1,951.8C603.02,946.96 600.58,939.89 595.04,938.99C591.52,939.9 590.88,944.85 592.33,947.71M570.25,950.89C568.81,951.78 570.16,954.47 571.71,953.42C573.17,952.51 571.78,949.83 570.25,950.89M746.18,953.03C744.51,954.29 746.82,956.38 748.27,955.34C749.82,954.19 747.53,951.7 746.18,953.03Z" style="fill:white;fill-rule:nonzero;"/>
                    <path d="M789.43,446.77C794.57,445.94 799.78,446.25 804.97,446.2C819.03,446.07 833.34,446.98 846.79,451.35C854.55,454.67 861.68,459.5 867.86,465.22C874.06,472.16 880.22,479.5 883.39,488.39C885.36,493.87 882.01,499.44 878.7,503.63C868.3,516.2 851.63,521.35 835.93,522.94C823.17,525.32 810.4,521.85 797.86,519.78C793.71,519.36 789.9,517.49 785.75,517.1C775.56,514.72 765.72,511.1 755.82,507.79C747.71,504.27 741.6,497.46 736.28,490.6C733.93,487.36 731.06,484.1 730.61,479.96C730.63,475.27 732.45,470.78 734.95,466.88C738.23,461.61 742.38,456.52 748.17,453.91C756.02,450.34 764.8,450.15 773.15,448.53C778.52,447.45 784.05,447.8 789.43,446.77Z" style="fill:white;fill-rule:nonzero;"/>
                    <path d="M146,511.91C145.65,509.32 149.08,509.26 150.86,509.47C152.92,509.73 152.32,512.35 152.77,513.81C153.2,522.48 155.95,530.77 158.86,538.88C161.1,544.73 165.16,550.65 162.8,557.18C158.82,552.56 157.21,546.58 154.6,541.19C151.52,531.54 146.32,522.25 146,511.91Z" style="fill:white;fill-rule:nonzero;"/>
                    <path d="M160.57,513.17C162.32,516.48 162.61,520.34 164.41,523.63C165.92,526.55 168.02,529.1 170.02,531.69C168.72,534.47 167.43,537.25 165.92,539.92C162.72,531.45 159.7,522.32 160.57,513.17Z" style="fill:white;fill-rule:nonzero;"/>
                    <path d="M137.32,515.21C137.73,515.14 138.56,515 138.97,514.93C140.21,517.39 139.98,520.23 140.61,522.87C142.3,530.56 145.59,537.77 148.88,544.89C151.5,550.24 153.99,555.75 157.75,560.42C158.99,562.05 160.46,563.63 160.91,565.71C158.52,567.14 156.56,564.62 155.16,562.99C151.55,558.19 148.37,553.04 144.12,548.75C141.72,546.6 141.87,543.17 140.56,540.44C137.79,534.46 134.97,528.4 133.57,521.93C133.79,519.31 135.51,517.01 137.32,515.21Z" style="fill:white;fill-rule:nonzero;"/>
                </g>
            </g>
        </g>
    </g>
    <g id="_-ffffffff" serif:id="#ffffffff">
    </g>
</svg>
